<svg xmlns="http://www.w3.org/2000/svg" width="210" height="210" viewBox="0 0 210 210"><style><![CDATA[.B{fill:#fff}.C{opacity:.9}.D{stroke-linecap:round}.E{stroke-linejoin:round}.F{stroke-width:3}.G{stroke:#ed1f12}.H{stroke-width:2.771}.I{fill:#ed1f12}.J{stroke-dasharray:0.8727,5.2361}]]></style><linearGradient id="A" x1="5.001" x2="204.99" y1="157.89" y2="157.89" gradientUnits="userSpaceOnUse"><stop stop-color="#e6eefe" offset=".005"/><stop stop-color="#cdc6fa" offset=".431"/><stop stop-color="#bdacf8" offset=".788"/><stop stop-color="#b7a2f7" offset=".999"/></linearGradient><path d="M164.46 135.8l-47.886-27.646-1.217-.626-.876-.356-.427-.176-1.136-.362-.24-.074-1.438-.35-1.492-.26c-5.938-.86-12.95.258-18.1 3.237l-46.1 26.613H5.002v16.594h.034c-.185 2.497 1.2 4.905 4.278 6.68l84.114 48.565c4.715 2.72 12.025 3.175 18.5 1.52l.08-.017a32.03 32.03 0 0 0 1.518-.438c.06-.02.122-.037.18-.055a25.8 25.8 0 0 0 1.377-.494c.084-.035.173-.062.256-.096a24.03 24.03 0 0 0 1.275-.556c.094-.044.19-.082.28-.126.502-.24.993-.497 1.466-.77l80.53-46.494c4.265-2.46 6.315-5.644 6.076-8.607V135.79H164.46z" fill="url(#A)"/><linearGradient id="B" x1="5" x2="205" y1="135.79" y2="135.79" gradientUnits="userSpaceOnUse"><stop stop-color="#f355ae" offset="0"/><stop stop-color="#ffa000" offset="1"/></linearGradient><path d="M93.428 191.04L9.313 142.476c-6.39-3.7-5.588-10.135 1.79-14.396l80.533-46.493c7.38-4.26 18.543-4.724 24.936-1.032l84.115 48.562c6.39 3.688 5.586 10.133-1.797 14.398l-80.53 46.492c-7.378 4.262-18.543 4.724-24.933 1.033z" fill="url(#B)"/><radialGradient id="C" cx="-1293.5" cy="306.78" r="28.695" gradientTransform="matrix(.866 .5 -.866 .5 1466.3 611.07)" gradientUnits="userSpaceOnUse"><stop stop-color="#fff" offset="0"/><stop stop-color="#fff" stop-opacity=".885" offset=".049"/><stop stop-color="#fff" stop-opacity="0" offset=".424"/></radialGradient><path d="M105.28 132.03c-13.725 7.926-35.976 7.926-49.7 0-13.724-7.92-13.724-20.77 0-28.693s35.977-7.922 49.7 0 13.725 20.773 0 28.693z" fill="url(#C)" class="C"/><g fill="none" class="D E G H"><path d="M80.428 68.968v.462"/><path d="M80.428 74.666V108.7" class="J"/><path d="M80.428 111.32v.46"/></g><circle cx="80.427" cy="115.59" r="3.802" class="I"/><linearGradient id="D" x1="53.58" x2="107.27" y1="52.27" y2="52.27" gradientUnits="userSpaceOnUse"><stop stop-color="#f355ae" offset="0"/><stop stop-color="#ffa000" offset="1"/></linearGradient><circle cx="80.427" cy="52.27" r="25.347" stroke="url(#D)" class="B F"/><path d="M69.32 66.006l-2.47-27.72h27.15L91.53 65.99l-11.127 3.083" fill="#e34d26"/><path d="M80.426 66.717V40.563h11.098L89.406 64.2" fill="#f06529"/><path d="M71.895 43.952h8.53v3.398H75.62l.314 3.48h4.5v3.4h-7.603m.14 1.706h3.412l.24 2.717 3.8 1.017v3.547l-6.974-1.945" fill="#eaeaea"/><path d="M88.928 43.952h-8.516v3.398h8.2m-.305 3.48h-7.895v3.397h4.2l-.397 4.416-3.793 1.017v3.532l6.96-1.93" class="B"/><radialGradient id="E" cx="-1265.8" cy="273.21" r="28.694" gradientTransform="matrix(.866 .5 -.866 .5 1466.3 611.07)" gradientUnits="userSpaceOnUse"><stop stop-color="#fff" offset="0"/><stop stop-color="#fff" stop-opacity=".885" offset=".049"/><stop stop-color="#fff" stop-opacity="0" offset=".424"/></radialGradient><path d="M158.34 129.1c-13.725 7.926-35.977 7.926-49.702 0-13.724-7.92-13.724-20.77 0-28.692s35.978-7.922 49.702 0 13.724 20.772 0 28.692z" fill="url(#E)" class="C"/><g fill="none" class="D E G H"><path d="M133.5 64.627v.462"/><path stroke-dasharray="0.909,5.4539" d="M133.5 70.542V106"/><path d="M133.5 108.72v.46"/></g><circle cx="133.49" cy="113.15" r="3.956" class="I"/><linearGradient id="F" x1="110.47" x2="156.51" y1="60.676" y2="60.676" gradientUnits="userSpaceOnUse"><stop stop-color="#f355ae" offset="0"/><stop stop-color="#ffa000" offset="1"/></linearGradient><circle cx="133.49" cy="60.676" r="21.519" stroke="url(#F)" class="B F"/><path fill="#264de3" d="M144.76 49.056l-2.05 23.01-9.23 2.56-9.2-2.555-2.05-23.013z"/><path fill="#2965f0" d="M140.95 70.6l1.75-19.662h-9.2v21.73z"/><path d="M126.92 59.473l.25 2.822h6.32v-2.822zm6.58-5.713h-7.08l.26 2.823h6.82zm0 15.98v-2.936.002l-3.15-.847-.2-2.252h-2.83l.4 4.43 5.8 1.606z" fill="#eaeaea"/><path d="M136.95 62.295l-.32 3.66-3.15.85v2.936l5.78-1.604.05-.476 1.24-13.9h-7.07v2.823h3.98l-.26 2.9h-3.72v2.822z" class="B"/><radialGradient id="G" cx="-1292.8" cy="348.52" r="28.695" gradientTransform="matrix(.866 .5 -.866 .5 1466.3 611.07)" gradientUnits="userSpaceOnUse"><stop stop-color="#fff" offset="0"/><stop stop-color="#fff" stop-opacity=".885" offset=".049"/><stop stop-color="#fff" stop-opacity="0" offset=".424"/></radialGradient><path d="M69.746 153.26c-13.724 7.926-35.977 7.926-49.702 0-13.723-7.92-13.723-20.77 0-28.693s35.978-7.922 49.702 0 13.725 20.772 0 28.693z" fill="url(#G)" class="C"/><g fill="none" class="D E G H"><path d="M44.415 90.293v.462"/><path stroke-dasharray="0.8727,5.2359" d="M44.415 95.99v34.03"/><path d="M44.415 132.64v.46"/></g><circle cx="44.414" cy="136.92" r="3.802" class="I"/><linearGradient id="H" x1="17.567" x2="71.262" y1="85.935" y2="85.935" gradientUnits="userSpaceOnUse"><stop stop-color="#f355ae" offset="0"/><stop stop-color="#ffa000" offset="1"/></linearGradient><circle cx="44.415" cy="85.934" r="25.347" stroke="url(#H)" class="B F"/><g fill="#f78224"><path d="M33.358 98.93l-2.52-27.745 27.153.01-2.5 27.713-11.098 3.132z"/><path d="M53.447 97.416l2.108-23.765h-11.12l.085 26.2zm-10.05-20.28h-2.7l-.032 14.223-5.242-1.43.01 3.25 7.963 2.15z"/></g><path d="M42.508 95.064l-3.834-1.048-3.187-.857v-1.6c0-1.567 0-1.6.158-1.546.085.032 1.25.35 2.584.72l2.425.667.042-14.19h2.647v9.023l-.096 9.022c-.05-.01-.4-.094-.74-.2z" class="B"/><path fill="#fb9e21" d="M44.436 73.64h11.12l-2.108 23.764-9.01 2.447z"/><path d="M52.875 93.422l.73-8.884-5.4.603v-4.744l5.762-.02.233-3.24-8.695.042.116 11.798 5.253-.9-.074 2.628-5.295 1.407.053 3.22z" class="B"/><radialGradient id="I" cx="-1230.6" cy="343.17" r="28.695" gradientTransform="matrix(.866 .5 -.866 .5 1466.3 611.07)" gradientUnits="userSpaceOnUse"><stop stop-color="#fff" offset="0"/><stop stop-color="#fff" stop-opacity=".885" offset=".049"/><stop stop-color="#fff" stop-opacity="0" offset=".424"/></radialGradient><path d="M128.22 181.67c-13.725 7.926-35.977 7.926-49.702 0-13.724-7.92-13.724-20.77 0-28.693s35.978-7.922 49.702 0 13.724 20.772 0 28.693z" fill="url(#I)" class="C"/><g fill="none" stroke="#4981fb" stroke-width="3.129" class="D E"><path d="M103.37 111.67v.52"/><path stroke-dasharray="0.9857,5.914" d="M103.37 118.1v38.44"/><path d="M103.37 159.5v.52"/></g><circle cx="103.37" cy="164.33" r="4.293" fill="#4981fb"/><linearGradient id="J" x1="70.785" x2="135.96" y1="100.64" y2="100.64" gradientUnits="userSpaceOnUse"><stop stop-color="#12c1e8" offset="0"/><stop stop-color="#7d1edb" offset="1"/></linearGradient><circle cx="103.37" cy="100.63" r="31.086" stroke="url(#J)" class="B F"/><path fill="#41cc52" d="M117.7 87.576H90.56l-4.918 4.917V113.7h30.55l4.9-4.9V87.576z"/><path d="M98.848 108.03c-2.337 0-3.965-.63-4.885-1.887s-1.382-3.245-1.382-5.963.468-4.735 1.403-6.053 2.558-1.976 4.863-1.976 3.923.655 4.85 1.965 1.394 3.327 1.394 6.05c0 1.798-.192 3.25-.573 4.358s-1.008 1.954-1.876 2.538l1.887 3.03-2.312 1.078-2-3.278c-.285.1-.742.136-1.37.136m-2.92-3.492c.508.874 1.483 1.314 2.92 1.314s2.408-.432 2.908-1.292.753-2.316.753-4.368-.258-3.54-.775-4.47-1.48-1.392-2.886-1.392-2.373.464-2.896 1.392-.786 2.412-.786 4.446.252 3.494.762 4.37m17.813-6.172h-3.098v4.94c0 .914.066 1.52.202 1.82s.478.448 1.032.448l1.842-.067.112 1.954c-1.003.196-1.767.293-2.3.293-1.272 0-2.146-.293-2.618-.876s-.707-1.686-.707-3.302v-5.2H106.5v-2.1h1.716v-3.256h2.427v3.256h3.098v2.1z" class="B"/><radialGradient id="K" cx="-1221.3" cy="284.96" r="28.695" gradientTransform="matrix(.866 .5 -.866 .5 1466.3 611.07)" gradientUnits="userSpaceOnUse"><stop stop-color="#fff" offset="0"/><stop stop-color="#fff" stop-opacity=".885" offset=".049"/><stop stop-color="#fff" stop-opacity="0" offset=".424"/></radialGradient><path d="M186.73 157.25c-13.725 7.926-35.977 7.926-49.702 0-13.724-7.92-13.724-20.77 0-28.693s35.978-7.922 49.702 0 13.725 20.773 0 28.693z" fill="url(#K)" class="C"/><g fill="none" class="D E G H"><path d="M161.88 94.28v.462"/><path d="M161.88 99.98V134" class="J"/><path d="M161.88 136.63v.46"/></g><circle cx="161.88" cy="140.9" r="3.802" class="I"/><linearGradient id="L" x1="140.71" x2="183.06" y1="90.688" y2="90.688" gradientUnits="userSpaceOnUse"><stop stop-color="#f355ae" offset="0"/><stop stop-color="#ffa000" offset="1"/></linearGradient><circle cx="161.88" cy="90.688" r="19.676" stroke="url(#L)" class="B F"/><path fill="#69f" d="M150.56 79.596h22.648v22.648H150.56z"/><path d="M161.88 96.672l-4.86-3.17V91.71l4.86 3.18v-4.02l-4.86-2.827v-1.677l4.87 2.732-.01-4.026-8-3.908v13.722l8 5.793z" class="B"/><path d="M161.88 100.68l8-5.787v-3.446l-8 5.225zm0-5.78l5.62-3.668V87.6l-5.62 3.27zm0-5.805l.01.004 8-4.495v-3.442l-8 3.9z" fill="#e0ebff"/></svg>