<svg xmlns="http://www.w3.org/2000/svg" xmlns:xlink="http://www.w3.org/1999/xlink" width="210" height="210" viewBox="0 0 210 210"><style><![CDATA[.B{clip-path:url(#CB)}.C{fill:#b6b9fe}.D{clip-path:url(#BZ)}.E{fill:#7591f9}.F{fill:#fff}.G{clip-path:url(#Bm)}.H{clip-path:url(#Cu)}.I{clip-path:url(#DH)}.J{clip-path:url(#g)}.K{fill:#a6b0fe}.L{fill:#5861d6}.M{clip-path:url(#EC)}.N{clip-path:url(#An)}.O{fill:#9c8c82}.P{clip-path:url(#o)}.Q{clip-path:url(#AC)}.R{clip-path:url(#Ac)}.S{clip-path:url(#BJ)}.T{stroke-linecap:round}.U{stroke-linejoin:round}.V{stroke-miterlimit:10}.W{clip-path:url(#Fn)}]]></style><defs><path id="A" d="M2.505 133.2v16.963h.035c-.188 2.552 1.237 5.014 4.376 6.826l86.01 49.65c4.82 2.78 12.296 3.246 18.916 1.554.028-.006.058-.012.083-.02a30.11 30.11 0 0 0 1.551-.449c.062-.02.126-.035.186-.055a28.6 28.6 0 0 0 1.407-.504c.086-.036.177-.064.264-.098.442-.178.875-.372 1.302-.57l.288-.127c.514-.247 1.017-.51 1.5-.79l82.347-47.53c4.36-2.514 6.456-5.77 6.212-8.8v-15.276c-.197 2.763-2.284 5.634-6.212 7.903l-82.347 47.527c-7.544 4.357-18.96 4.83-25.495 1.058L6.916 140.818c-3.464-2-4.84-4.8-4.266-7.618h-.145z"/><path id="B" d="M72.383 86.7l-.304.174v-8.26l.304-.176z"/><path id="C" d="M76.506 80.594l-.5.29-4.428-2.557.502-.3z"/></defs><clipPath id="D"><use xlink:href="#A"/></clipPath><linearGradient id="E" x1="4.205" x2="208.705" y1="171.29" y2="171.29" gradientUnits="userSpaceOnUse"><stop stop-color="#e6eefe" offset="0"/><stop stop-color="#e6eefe" offset=".005"/><stop stop-color="#cec7fb" offset=".431"/><stop stop-color="#beadf9" offset=".787"/><stop stop-color="#b8a3f8" offset=".999"/><stop stop-color="#b8a3f8" offset="1"/></linearGradient><path clip-path="url(#D)" fill="url(#E)" d="M2.075 133.2h205.15v76.685H2.075z"/><defs><path id="F" d="M91.072 79.1l-82.327 47.53c-3.547 2.048-5.586 4.588-6.095 7.1h41.294l47.128-27.207c5.278-3.047 12.443-4.188 18.513-3.31a25.64 25.64 0 0 1 1.526.268c.035.008.067.018.104.023.463.1.92.207 1.366.334.084.023.16.05.244.074.395.117.786.236 1.163.373.148.056.29.12.436.178.302.117.606.232.896.365a15.13 15.13 0 0 1 1.244.638l48.95 28.265h41.41v.776c.182-2.55-1.242-5.008-4.375-6.816l-85.987-49.644c-2.962-1.71-6.924-2.55-11.073-2.55-5 0-10.293 1.222-14.42 3.605"/></defs><clipPath id="G"><use xlink:href="#F"/></clipPath><linearGradient id="H" x1="3.262" x2="207.552" y1="106.21" y2="106.21" gradientUnits="userSpaceOnUse"><stop stop-color="#f455af" offset="0"/><stop stop-color="#ffa100" offset="1"/></linearGradient><path clip-path="url(#G)" fill="url(#H)" d="M2.65 75.494H207.1v59.01H2.65z"/><defs><path id="I" d="M91.072 106.52l-47.128 27.207H2.65c-.574 2.83.802 5.618 4.265 7.618l85.988 49.646c6.533 3.773 17.945 3.302 25.488-1.056l82.326-47.528c3.926-2.27 6.012-5.14 6.2-7.903v-.776h-41.41l-48.95-28.265a15.45 15.45 0 0 0-1.244-.638c-.3-.133-.595-.248-.896-.365l-.436-.178a20.52 20.52 0 0 0-1.163-.373c-.084-.023-.16-.05-.244-.074-.445-.127-.903-.234-1.366-.334-.036-.006-.068-.016-.104-.023a24.54 24.54 0 0 0-1.523-.265c-1.33-.194-2.71-.3-4.112-.3-5.006-.001-10.282 1.216-14.405 3.597"/></defs><clipPath id="J"><use xlink:href="#I"/></clipPath><linearGradient id="K" x1="2.756" x2="207.156" y1="148.728" y2="148.728" gradientUnits="userSpaceOnUse"><stop stop-color="#e6eefe" offset="0"/><stop stop-color="#e6eefe" offset=".005"/><stop stop-color="#cec7fb" offset=".431"/><stop stop-color="#beadf9" offset=".787"/><stop stop-color="#b8a3f8" offset=".999"/><stop stop-color="#b8a3f8" offset="1"/></linearGradient><path clip-path="url(#J)" fill="url(#K)" d="M2.076 102.92h204.85v91.842H2.076z"/><defs><path id="L" d="M91.072 106.52l-47.128 27.207H2.65c-.02 3.15.802 5.618 4.265 7.618l85.988 49.646c6.533 3.773 17.945 3.302 25.488-1.056l82.326-47.528c3.926-2.27 6.012-5.14 6.2-7.903v-.776h-41.41l-48.95-28.265a15.45 15.45 0 0 0-1.244-.638c-.3-.133-.595-.248-.896-.365l-.436-.178a20.52 20.52 0 0 0-1.163-.373c-.084-.023-.16-.05-.244-.074-.445-.127-.903-.234-1.366-.334-.036-.006-.068-.016-.104-.023a24.54 24.54 0 0 0-1.523-.265c-1.33-.194-2.71-.3-4.112-.3-5.006-.001-10.282 1.216-14.405 3.597"/></defs><clipPath id="M"><use xlink:href="#L"/></clipPath><linearGradient id="N" x1="3.217" x2="207.497" y1="148.254" y2="148.254" gradientUnits="userSpaceOnUse"><stop stop-color="#f455af" offset="0"/><stop stop-color="#ffa100" offset="1"/></linearGradient><path clip-path="url(#M)" fill="url(#N)" d="M2.63 102.92h204.3v91.842H2.63z"/><defs><path id="O" d="M98.646 68.35l-23.48 13.38H54.525v18.547h.017c-.093 1.256.617 2.467 2.178 3.358l42.84 24.42c2.4 1.368 6.123 1.597 9.418.765l.042-.01.864-.248.833-.296.65-.28.142-.063.746-.387 41.012-23.378c2.173-1.236 3.218-2.838 3.096-4.328v-18.1h-20.63l-24.39-13.9a6.91 6.91 0 0 0-.62-.314l-.443-.18-.217-.09-.703-.217-.68-.164-.052-.013-.76-.13c-.663-.095-1.352-.143-2.05-.143-2.492.002-5.12.6-7.174 1.77"/></defs><clipPath id="P"><use xlink:href="#O"/></clipPath><linearGradient id="Q" x1="55.344" x2="157.194" y1="97.044" y2="97.044" gradientUnits="userSpaceOnUse"><stop stop-color="#e6eefe" offset="0"/><stop stop-color="#e6eefe" offset=".005"/><stop stop-color="#cec7fb" offset=".431"/><stop stop-color="#beadf9" offset=".787"/><stop stop-color="#b8a3f8" offset=".999"/><stop stop-color="#b8a3f8" offset="1"/></linearGradient><path clip-path="url(#P)" fill="url(#Q)" d="M54.45 66.582h102.03v63.07H54.45z"/><defs><path id="R" d="M98.646 54.478L57.634 77.853c-3.76 2.142-4.167 5.384-.914 7.24l42.84 24.417c3.253 1.854 8.94 1.623 12.695-.52l41.012-23.375c3.76-2.145 4.168-5.385.916-7.24l-42.838-24.416c-1.474-.84-3.447-1.252-5.515-1.252-2.495 0-5.127.6-7.183 1.773"/></defs><clipPath id="S"><use xlink:href="#R"/></clipPath><linearGradient id="T" x1="54.344" x2="156.194" y1="82.044" y2="82.044" gradientUnits="userSpaceOnUse"><stop stop-color="#f455af" offset="0"/><stop stop-color="#ffa100" offset="1"/></linearGradient><path clip-path="url(#S)" fill="url(#T)" d="M53.467 52.705h103.97v58.658H53.467z"/><defs><path id="U" d="M46.797 105.26l-23.57 13.38-20.72 1.943v16.605h.017c-.093 1.254.62 2.467 2.187 3.357l39.965 22.693-.074.037 9.064 5.124 10.54-6.083 37.424-21.25c.04-.023.074-.05.114-.072l-.023.064 3.03-1.896v-4.853l-.015.018v-14.14l-20.707-1.55-24.482-13.9-.623-.314-.665-.268-.58-.183-.123-.036-.682-.164c-.02-.002-.036-.01-.052-.012l-.76-.13-.002-.001c-.664-.095-1.354-.142-2.054-.142-2.504.001-5.143.6-7.204 1.77"/></defs><clipPath id="V"><use xlink:href="#U"/></clipPath><linearGradient id="W" x1="1.893" x2="104.133" y1="135.555" y2="135.555" gradientUnits="userSpaceOnUse"><stop stop-color="#e6eefe" offset="0"/><stop stop-color="#e6eefe" offset=".005"/><stop stop-color="#e2e8fe" offset=".207"/><stop stop-color="#d8d8fc" offset=".472"/><stop stop-color="#c8bdfa" offset=".771"/><stop stop-color="#b8a3f8" offset=".999"/><stop stop-color="#b8a3f8" offset="1"/></linearGradient><path clip-path="url(#V)" fill="url(#W)" d="M2.43 103.5h102.32v64.9H2.43z"/><defs><path id="X" d="M46.797 92.967l-41.17 23.376c-3.774 2.142-4.183 5.382-.917 7.237l43.004 24.417c3.265 1.856 8.974 1.624 12.744-.52l41.17-23.376c3.773-2.143 4.184-5.384.92-7.238L59.544 92.447c-1.48-.842-3.46-1.254-5.535-1.254-2.506 0-5.148.602-7.212 1.774"/></defs><clipPath id="Y"><use xlink:href="#X"/></clipPath><linearGradient id="Z" x1="2.932" x2="105.182" y1="120.54" y2="120.54" gradientUnits="userSpaceOnUse"><stop stop-color="#f455af" offset="0"/><stop stop-color="#ffa100" offset="1"/></linearGradient><path clip-path="url(#Y)" fill="url(#Z)" d="M1.443 91.193h104.37v58.66H1.443z"/><defs><path id="a" d="M0 21.18h210v210H0z"/></defs><clipPath id="b"><use xlink:href="#a"/></clipPath><path d="M45.393 129.96l-.33-.48s-1.02-3.623 2.796-3.515 4.056 2.195 4.056 2.195l-6.52 1.8zm-23.92-15.5h-.333s-1.017-4.1 2.798-3.993 4.055 2.196 4.055 2.196l-6.52 1.797z" clip-path="url(#b)" fill="#040000"/><defs><path id="c" d="M21.223 114.47c-.006 2.297 1.607 5.096 3.607 6.252s3.626.227 3.634-2.07-1.61-5.098-3.61-6.252c-.584-.338-1.135-.496-1.624-.496-1.187-.001-2.004.938-2.008 2.566"/></defs><clipPath id="d"><use xlink:href="#c"/></clipPath><linearGradient id="e" x1="28.473" x2="21.231" y1="116.89" y2="116.89" gradientUnits="userSpaceOnUse"><stop stop-color="#6a6a6a" offset="0"/><stop stop-color="#6a6a6a" offset=".051"/><stop stop-color="#363636" offset="1"/></linearGradient><path clip-path="url(#d)" fill="url(#e)" d="M21.217 111.9h7.252v9.973h-7.252z"/><defs><path id="f" d="M0 21.18h210v210H0z"/></defs><clipPath id="g"><use xlink:href="#f"/></clipPath><path d="M24.85 113.4c1.522.877 2.75 3.008 2.746 4.754s-1.24 2.455-2.763 1.576-2.752-3.01-2.746-4.756 1.242-2.452 2.763-1.574" fill="#878787" class="J"/><path d="M24.85 114.13c1.168.677 2.113 2.312 2.1 3.655s-.956 1.885-2.124 1.2-2.114-2.3-2.11-3.654.954-1.884 2.123-1.21" fill="#bcbec0" class="J"/><path d="M62.488 112.5c.31.713 1.947.75 2.883.342s2.028-1.65 1.717-2.362-1.91-.627-2.844-.218-2.068 1.527-1.756 2.238" fill="#f0f0fd" class="J"/><path d="M66.994 111c-.31-.715-1.9-.627-2.844-.22-.67.29-1.437.947-1.707 1.557-.09-.707.938-1.688 1.8-2.065.936-.408 2.533-.495 2.844.218.092.206.06.457-.047.72-.005-.075-.018-.145-.047-.2" class="F J"/><defs><path id="h" d="M65.565 112.03c-.934.407-2.572.37-2.885-.343-.012-.028-.017-.06-.027-.09-.197.316-.28.64-.165.902.3.714 1.948.75 2.884.343.88-.386 1.9-1.51 1.755-2.233-.324.578-.973 1.163-1.562 1.42"/></defs><clipPath id="i"><use xlink:href="#h"/></clipPath><linearGradient id="j" x1="67.157" x2="62.452" y1="111.925" y2="111.925" gradientUnits="userSpaceOnUse"><stop stop-color="#dcddff" offset="0"/><stop stop-color="#dbdcff" offset=".066"/><stop stop-color="#b6b9fe" offset="1"/></linearGradient><path clip-path="url(#i)" fill="url(#j)" d="M62.373 110.6h4.9v2.64h-4.9z"/><defs><path id="k" d="M45.37 129.48c-.007 2.296 1.607 5.095 3.608 6.25s3.626.23 3.632-2.068-1.61-5.098-3.608-6.253c-.584-.337-1.136-.496-1.625-.496-1.187 0-2.003.94-2.007 2.568"/></defs><clipPath id="l"><use xlink:href="#k"/></clipPath><linearGradient id="m" x1="52.626" x2="45.386" y1="131.903" y2="131.903" gradientUnits="userSpaceOnUse"><stop stop-color="#6a6a6a" offset="0"/><stop stop-color="#6a6a6a" offset=".051"/><stop stop-color="#363636" offset="1"/></linearGradient><path clip-path="url(#l)" fill="url(#m)" d="M45.364 126.9h7.254v9.972h-7.254z"/><defs><path id="n" d="M0 21.18h210v210H0z"/></defs><clipPath id="o"><use xlink:href="#n"/></clipPath><path d="M48.998 128.4c1.522.877 2.752 3.007 2.747 4.756s-1.243 2.454-2.763 1.574-2.752-3.008-2.746-4.756 1.242-2.454 2.762-1.574" fill="#878787" class="P"/><path d="M48.997 129.14c1.17.675 2.114 2.312 2.11 3.655s-.955 1.885-2.124 1.2-2.114-2.312-2.1-3.655.956-1.884 2.123-1.2" fill="#bcbec0" class="P"/><defs><path id="p" d="M23.476 100c-9.83 6.265-2.37 14.284-2.37 14.284-.537-3.832 3.02-3.11 3.02-3.11 4.9 1.702 4.792 8.5 4.792 8.5l16.144 9.792c-.32-1.276.68-4.41 4.83-2.7s4.496 7.495 4.496 7.495l1.402.287c3.868.615 7.85.11 11.4-1.547 3.303-1.54 5.032-3.46 6.096-4.59 1.7-1.8.638-5.426.638-5.426.64-5.107-9.363-11.81-9.363-11.81-9.38-11.055-22.876-13.3-22.876-13.3h-4.36c-1.105-.724-2.54-1.07-4.164-1.07-2.913.001-6.425 1.122-9.685 3.2"/></defs><clipPath id="q"><use xlink:href="#p"/></clipPath><linearGradient id="r" x1="18.377" x2="74.235" y1="115.849" y2="115.849" gradientUnits="userSpaceOnUse"><stop stop-color="#98ecfe" offset="0"/><stop stop-color="#fff" offset="1"/></linearGradient><path clip-path="url(#q)" fill="url(#r)" d="M13.646 96.81h61.342v38.36H13.646z"/><defs><path id="s" d="M49.892 126.77c1 .636 1.8 1.264 2.417 1.842-.61-.762-1.4-1.425-2.417-1.842m-1.797-.476c.52.048 1.116.197 1.797.477-.51-.32-1.14-.477-1.77-.477h-.026m-2.645 1.158l.134.086c.465-.813 1.483-1.237 2.51-1.244l-.373-.02c-1.14 0-1.862.524-2.272 1.177m27.837-1.86c-1.064 1.13-2.793 3.05-6.096 4.59-3.55 1.658-7.533 2.16-11.4 1.547l-1.402-.288s-.377-1.23-2.08-2.83c1.882 2.352 2.08 5.653 2.08 5.653l1.402.287c3.868.615 7.85.11 11.4-1.547 3.303-1.54 5.032-3.46 6.096-4.59 1.165-1.24 1.035-3.325.835-4.518-.134.625-.4 1.22-.835 1.695m-44.37-5.904l16.144 9.792c-.13-.52-.042-1.345.388-2.028l-16.532-10.584s-.47-1.314-1.357-2.693c1.4 2.515 1.357 5.513 1.357 5.513m-1.357-5.513c-.56-1.004-1.35-1.932-2.463-2.56 1.014.598 1.84 1.594 2.463 2.56m-2.463-2.56a4.55 4.55 0 0 0-.59-.291h-.003c.207.088.405.185.593.29m-.593-.29a5.04 5.04 0 0 0-.379-.146s-.135-.027-.35-.043a10.5 10.5 0 0 0 .728.189m-3.398 2.965c-.433-3.084 1.787-3.22 2.67-3.154-1.514-.443-4.884-1.704-5.256-4.234-.696 5.378 2.586 7.388 2.586 7.388"/></defs><clipPath id="t"><use xlink:href="#s"/></clipPath><linearGradient id="u" x1="18.486" x2="74.315" y1="120.929" y2="120.929" gradientUnits="userSpaceOnUse"><stop stop-color="#3cc1f5" offset="0"/><stop stop-color="#4185e7" offset="1"/></linearGradient><path clip-path="url(#t)" fill="url(#u)" d="M17.825 106.9h56.627v28.267H17.825z"/><defs><path id="v" d="M42.4 110.9l5.236 7.225c.37.465.815.847 1.31 1.137 1.115.656 2.474.84 3.763.457 3.896-1.16 10.233-3.54 11.99-7.133.28-.57-.148-1.07-.627-1.49a45.49 45.49 0 0 0-3.685-3.588c-1.413-1.23-3.37-2.558-4.638-3.43-4.848 2.13-8.747 4.176-13.35 6.824"/></defs><clipPath id="w"><use xlink:href="#v"/></clipPath><linearGradient id="x" x1="42.34" x2="64.727" y1="112.15" y2="112.15" gradientUnits="userSpaceOnUse"><stop stop-color="#3cc1f5" offset="0"/><stop stop-color="#4185e7" offset="1"/></linearGradient><path clip-path="url(#w)" fill="url(#x)" d="M42.4 104.07H64.98v16.026H42.4z"/><defs><path id="y" d="M37.325 97.882c-4.642.48-14.31 5.466-14.31 5.466h4.508c6.704-4.15 12.563-5.466 12.563-5.466h-2.76z"/></defs><clipPath id="z"><use xlink:href="#y"/></clipPath><linearGradient id="AA" x1="22.951" x2="40.022" y1="100.617" y2="100.617" gradientUnits="userSpaceOnUse"><stop stop-color="#3cc1f5" offset="0"/><stop stop-color="#4185e7" offset="1"/></linearGradient><path clip-path="url(#z)" fill="url(#AA)" d="M23.014 97.882h17.07v5.466h-17.07z"/><defs><path id="AB" d="M0 21.18h210v210H0z"/></defs><clipPath id="AC"><use xlink:href="#AB"/></clipPath><path d="M47.16 119.62c0 .778-1.484 1.468-2.505 1.468s-2.52-.7-2.52-1.476 1.498-1.342 2.52-1.342 2.505.574 2.505 1.35" fill="#f0f0fd" class="Q"/><path d="M42.424 120.04c0-.776 1.5-1.338 2.52-1.338.73 0 1.695.293 2.188.744-.202-.688-1.537-1.174-2.48-1.174-1.02 0-2.518.563-2.518 1.34 0 .224.127.442.33.638-.023-.07-.04-.14-.04-.21" class="F Q"/><defs><path id="AD" d="M46.657 118.95c0 .775-1.487 1.465-2.506 1.465a3.67 3.67 0 0 1-2.001-.674c.16.722 1.543 1.342 2.504 1.342 1.02 0 2.505-.688 2.505-1.467 0-.287-.204-.547-.513-.76.005.03.01.06.01.094"/></defs><clipPath id="AE"><use xlink:href="#AD"/></clipPath><linearGradient id="AF" x1="47.148" x2="42.138" y1="119.974" y2="119.974" gradientUnits="userSpaceOnUse"><stop stop-color="#dcddff" offset="0"/><stop stop-color="#dbdcff" offset=".066"/><stop stop-color="#b6b9fe" offset="1"/></linearGradient><path clip-path="url(#AE)" fill="url(#AF)" d="M42.15 118.86h5.01v2.228h-5.01z"/><defs><path id="AG" d="M72.628 122.96s.766.715 1.017-.2-1.017-3.168-1.017-3.168v3.368z"/></defs><clipPath id="AH"><use xlink:href="#AG"/></clipPath><linearGradient id="AI" x1="72.627" x2="73.677" y1="121.635" y2="121.635" gradientUnits="userSpaceOnUse"><stop stop-color="#3cc1f5" offset="0"/><stop stop-color="#4185e7" offset="1"/></linearGradient><path clip-path="url(#AH)" fill="url(#AI)" d="M72.628 119.6h1.268v4.083h-1.268z"/><defs><path id="AJ" d="M58.893 127.44l.038 1.05c.037 1.07.61 1.917 1.322 1.95l1.548.072c.77.036 1.41-.896 1.41-2.057 0-.025-.012-.046-.03-.048l-4.25-1.017c-.025.001-.04.024-.04.05"/></defs><clipPath id="AK"><use xlink:href="#AJ"/></clipPath><linearGradient id="AL" x1="58.889" x2="63.206" y1="128.97" y2="128.97" gradientUnits="userSpaceOnUse"><stop stop-color="#3cc1f5" offset="0"/><stop stop-color="#4185e7" offset="1"/></linearGradient><path clip-path="url(#AK)" fill="url(#AL)" d="M58.893 127.4H63.2v3.158h-4.317z"/><defs><path id="AM" d="M46.04 118.22l-5.186-7.31-13.045-6.24c1.992 6.6 18.23 13.552 18.23 13.552"/></defs><clipPath id="AN"><use xlink:href="#AM"/></clipPath><linearGradient id="AO" x1="28.404" x2="50.964" y1="112.881" y2="109.292" gradientUnits="userSpaceOnUse"><stop stop-color="#3cc1f5" offset="0"/><stop stop-color="#4185e7" offset="1"/></linearGradient><path clip-path="url(#AN)" fill="url(#AO)" d="M28.26 121.05l19.884-3.16-2.553-16.05L25.707 105z"/><defs><path id="AP" d="M148.94 115.47l-23.592 13.38h-20.744l.002 10.145 1.16.804a5.85 5.85 0 0 0 1.045.753l43.045 24.42 6.326 3.268 6.432-3.787 41.2-23.377c2.184-1.236 3.232-2.838 3.11-4.327v-7.896h-20.73l-24.503-13.9-.623-.313-.667-.27-.58-.182-.123-.037-.685-.164c-.018-.002-.032-.01-.05-.012l-.763-.13-.002-.001a14.55 14.55 0 0 0-2.055-.142c-2.506-.002-5.148.597-7.21 1.768"/></defs><clipPath id="AQ"><use xlink:href="#AP"/></clipPath><linearGradient id="AR" x1="104.29" x2="206.63" y1="140.178" y2="140.178" gradientUnits="userSpaceOnUse"><stop stop-color="#e6eefe" offset="0"/><stop stop-color="#e6eefe" offset=".005"/><stop stop-color="#d9d9fc" offset=".131"/><stop stop-color="#cbc2fa" offset=".319"/><stop stop-color="#c0b0f9" offset=".518"/><stop stop-color="#baa6f8" offset=".735"/><stop stop-color="#b8a3f8" offset=".999"/><stop stop-color="#b8a3f8" offset="1"/></linearGradient><path clip-path="url(#AQ)" fill="url(#AR)" d="M104.6 113.7h102.45v54.537H104.6z"/><defs><path id="AS" d="M148.94 101.6l-41.21 23.376c-3.774 2.144-4.187 5.382-.917 7.238l43.045 24.417c3.27 1.855 8.982 1.623 12.758-.52l41.2-23.378c3.777-2.143 4.2-5.384.92-7.237L161.7 101.08c-1.482-.84-3.465-1.252-5.542-1.252-2.51 0-5.154.6-7.22 1.773"/></defs><clipPath id="AT"><use xlink:href="#AS"/></clipPath><linearGradient id="AU" x1="104.329" x2="206.68" y1="128.141" y2="128.141" gradientUnits="userSpaceOnUse"><stop stop-color="#f455af" offset="0"/><stop stop-color="#ffa100" offset="1"/></linearGradient><path clip-path="url(#AT)" fill="url(#AU)" d="M103.54 99.826H208v58.66H103.54z"/><defs><path id="AV" d="M67.822 62.586l.01 15.756 24.513 13.69-.01-15.938-12.23-14.163z"/></defs><clipPath id="AW"><use xlink:href="#AV"/></clipPath><linearGradient id="AX" x1="92.445" x2="67.924" y1="76.98" y2="76.98" gradientUnits="userSpaceOnUse"><stop stop-color="#dcddff" offset="0"/><stop stop-color="#dbdcff" offset=".066"/><stop stop-color="#b6b9fe" offset="1"/></linearGradient><path clip-path="url(#AW)" fill="url(#AX)" d="M67.822 61.93h24.522v30.102H67.822z"/><defs><path id="AY" d="M92.335 76.093l.01 15.938 35.416-19.19V57.023z"/></defs><clipPath id="AZ"><use xlink:href="#AY"/></clipPath><linearGradient id="Aa" x1="127.925" x2="92.501" y1="74.489" y2="74.489" gradientUnits="userSpaceOnUse"><stop stop-color="#dcddff" offset="0"/><stop stop-color="#dbdcff" offset=".066"/><stop stop-color="#b6b9fe" offset="1"/></linearGradient><path clip-path="url(#AZ)" fill="url(#Aa)" d="M92.335 57.023h35.425V92.03H92.335z"/><defs><path id="Ab" d="M0 21.18h210v210H0z"/></defs><clipPath id="Ac"><use xlink:href="#Ab"/></clipPath><path d="M66.86 61.926l12.557-.973 13.81 14.936.002 1.793-14.447-15.05-11.92.64z" class="C R"/><path d="M128.82 58.462l-35.592 19.22-.001-1.794 35.593-19.206z" class="K R"/><defs><path id="Ad" d="M79.418 60.953l13.81 14.936L128.82 56.68l-13.1-13.193z"/></defs><clipPath id="Ae"><use xlink:href="#Ad"/></clipPath><linearGradient id="Af" x1="79.201" x2="128.609" y1="59.45" y2="59.45" gradientUnits="userSpaceOnUse"><stop stop-color="#3cc1f5" offset="0"/><stop stop-color="#4185e7" offset="1"/></linearGradient><path clip-path="url(#Ae)" fill="url(#Af)" d="M79.418 43.488h49.407v32.4H79.418z"/><defs><path id="Ag" d="M103.64 44.09L66.86 61.927l12.557-.974 36.312-17.465z"/></defs><clipPath id="Ah"><use xlink:href="#Ag"/></clipPath><linearGradient id="Ai" x1="66.771" x2="115.638" y1="52.642" y2="52.642" gradientUnits="userSpaceOnUse"><stop stop-color="#3cc1f5" offset="0"/><stop stop-color="#4185e7" offset="1"/></linearGradient><path clip-path="url(#Ah)" fill="url(#Ai)" d="M66.86 43.488h48.867v18.438H66.86z"/><defs><path id="Aj" d="M118.92 75.838l.01 15.84 23.95-12.607V63.306l-11.95-.803z"/></defs><clipPath id="Ak"><use xlink:href="#Aj"/></clipPath><linearGradient id="Al" x1="142.974" x2="119.016" y1="77.121" y2="77.121" gradientUnits="userSpaceOnUse"><stop stop-color="#dcddff" offset="0"/><stop stop-color="#dbdcff" offset=".066"/><stop stop-color="#b6b9fe" offset="1"/></linearGradient><path clip-path="url(#Ak)" fill="url(#Al)" d="M118.92 62.503h23.958v29.174H118.92z"/><defs><path id="Am" d="M0 21.18h210v210H0z"/></defs><clipPath id="An"><use xlink:href="#Am"/></clipPath><path fill="#e8e9ff" d="M118.92 75.838l-13.55-7.2.01 15.887 13.55 7.143z" class="N"/><path d="M143.8 63.803l-12.2-1.12-13.56 14.084v1.785l14.13-14.205 11.64.777z" class="K N"/><path d="M104.3 71.22l13.74 7.33v-1.785l-13.74-7.334z" class="C N"/><defs><path id="Ao" d="M104.3 69.432l13.74 7.334 13.56-14.083-23.16-10.256z"/></defs><clipPath id="Ap"><use xlink:href="#Ao"/></clipPath><linearGradient id="Aq" x1="104.2" x2="131.504" y1="64.524" y2="64.524" gradientUnits="userSpaceOnUse"><stop stop-color="#3cc1f5" offset="0"/><stop stop-color="#4185e7" offset="1"/></linearGradient><path clip-path="url(#Ap)" fill="url(#Aq)" d="M104.3 52.427h27.304v24.34H104.3z"/><defs><path id="Ar" d="M131.6 62.683l12.2 1.12-15-7.12-20.38-4.254z"/></defs><clipPath id="As"><use xlink:href="#Ar"/></clipPath><linearGradient id="At" x1="108.393" x2="143.759" y1="58.227" y2="58.227" gradientUnits="userSpaceOnUse"><stop stop-color="#3cc1f5" offset="0"/><stop stop-color="#4185e7" offset="1"/></linearGradient><path clip-path="url(#As)" fill="url(#At)" d="M108.44 52.427h35.366v11.375H108.44z"/><defs><path id="Au" d="M116.92 59.78v6.277l2.7-2.786v-4.845z"/></defs><clipPath id="Av"><use xlink:href="#Au"/></clipPath><linearGradient id="Aw" x1="116.919" x2="119.608" y1="62.234" y2="62.234" gradientUnits="userSpaceOnUse"><stop stop-color="#dcddff" offset="0"/><stop stop-color="#dbdcff" offset=".066"/><stop stop-color="#b6b9fe" offset="1"/></linearGradient><path clip-path="url(#Av)" fill="url(#Aw)" d="M116.92 58.425h2.69v7.63h-2.69z"/><defs><path id="Ax" d="M114.42 64.695l2.5 1.36V59.78l-2.5-1.36z"/></defs><clipPath id="Ay"><use xlink:href="#Ax"/></clipPath><linearGradient id="Az" x1="114.415" x2="116.918" y1="62.234" y2="62.234" gradientUnits="userSpaceOnUse"><stop stop-color="#dcddff" offset="0"/><stop stop-color="#dbdcff" offset=".066"/><stop stop-color="#b6b9fe" offset="1"/></linearGradient><path clip-path="url(#Ay)" fill="url(#Az)" d="M114.42 58.42h2.503v7.637h-2.503z"/><defs><path id="BA" d="M0 21.18h210v210H0z"/></defs><clipPath id="BB"><use xlink:href="#BA"/></clipPath><path clip-path="url(#BB)" fill="#e75151" d="M114.42 58.418l2.5 1.362 2.68-1.365-2.5-1.352z"/><defs><path id="BC" d="M116.9 59.78v1.996l3.28-1.658v-1.994z"/></defs><clipPath id="BD"><use xlink:href="#BC"/></clipPath><linearGradient id="BE" x1="120.176" x2="116.891" y1="59.948" y2="59.948" gradientUnits="userSpaceOnUse"><stop stop-color="#dcddff" offset="0"/><stop stop-color="#dbdcff" offset=".066"/><stop stop-color="#b6b9fe" offset="1"/></linearGradient><path clip-path="url(#BD)" fill="url(#BE)" d="M116.9 58.123h3.283v3.652H116.9z"/><defs><path id="BF" d="M113.84 60.11l3.06 1.664V59.78l-3.06-1.664z"/></defs><clipPath id="BG"><use xlink:href="#BF"/></clipPath><linearGradient id="BH" x1="116.895" x2="113.84" y1="59.946" y2="59.946" gradientUnits="userSpaceOnUse"><stop stop-color="#dcddff" offset="0"/><stop stop-color="#dbdcff" offset=".066"/><stop stop-color="#b6b9fe" offset="1"/></linearGradient><path clip-path="url(#BG)" fill="url(#BH)" d="M113.84 58.115h3.054v3.66h-3.054z"/><defs><path id="BI" d="M0 21.18h210v210H0z"/></defs><clipPath id="BJ"><use xlink:href="#BI"/></clipPath><path d="M113.84 58.115l3.06 1.666 3.28-1.658-3.05-1.666z" class="F S"/><path d="M115.07 58.098l1.87 1.02 2-1.022-1.87-1.015z" class="K S"/><defs><path id="BK" d="M90.4 48.295l-.018 4.832 2.755-1.31-.003-4.888z"/></defs><clipPath id="BL"><use xlink:href="#BK"/></clipPath><linearGradient id="BM" x1="93.136" x2="90.381" y1="50.028" y2="50.028" gradientUnits="userSpaceOnUse"><stop stop-color="#dcddff" offset="0"/><stop stop-color="#dbdcff" offset=".066"/><stop stop-color="#b6b9fe" offset="1"/></linearGradient><path clip-path="url(#BL)" fill="url(#BM)" d="M90.372 46.928h2.755v6.2h-2.755z"/><defs><path id="BN" d="M87.85 53.31l2.523-.182.018-4.832-2.545-1.377z"/></defs><clipPath id="BO"><use xlink:href="#BN"/></clipPath><linearGradient id="BP" x1="90.407" x2="87.862" y1="50.116" y2="50.116" gradientUnits="userSpaceOnUse"><stop stop-color="#dcddff" offset="0"/><stop stop-color="#dbdcff" offset=".066"/><stop stop-color="#b6b9fe" offset="1"/></linearGradient><path clip-path="url(#BO)" fill="url(#BP)" d="M87.845 46.918H90.4v6.39h-2.545z"/><defs><path id="BQ" d="M0 21.18h210v210H0z"/></defs><clipPath id="BR"><use xlink:href="#BQ"/></clipPath><path clip-path="url(#BR)" fill="#e75151" d="M87.845 46.917l2.545 1.377 2.734-1.374-2.54-1.37z"/><defs><path id="BS" d="M90.37 48.295v2.013l3.34-1.672-.002-2.01z"/></defs><clipPath id="BT"><use xlink:href="#BS"/></clipPath><linearGradient id="BU" x1="93.726" x2="90.385" y1="48.475" y2="48.475" gradientUnits="userSpaceOnUse"><stop stop-color="#dcddff" offset="0"/><stop stop-color="#dbdcff" offset=".066"/><stop stop-color="#b6b9fe" offset="1"/></linearGradient><path clip-path="url(#BT)" fill="url(#BU)" d="M90.37 46.626h3.34v3.682h-3.34z"/><defs><path id="BV" d="M87.26 48.623l3.1 1.685v-2.013l-3.11-1.684z"/></defs><clipPath id="BW"><use xlink:href="#BV"/></clipPath><linearGradient id="BX" x1="90.361" x2="87.25" y1="48.454" y2="48.454" gradientUnits="userSpaceOnUse"><stop stop-color="#dcddff" offset="0"/><stop stop-color="#dbdcff" offset=".066"/><stop stop-color="#b6b9fe" offset="1"/></linearGradient><path clip-path="url(#BW)" fill="url(#BX)" d="M87.26 46.61h3.11v3.696h-3.11z"/><defs><path id="BY" d="M0 21.18h210v210H0z"/></defs><clipPath id="BZ"><use xlink:href="#BY"/></clipPath><path d="M87.26 46.612l3.11 1.683 3.34-1.668-3.103-1.685z" class="D F"/><path d="M88.5 46.593l1.904 1.032 2.048-1.03-1.903-1.026z" class="D K"/><path d="M138.5 74.965l-3.42 1.795v-6.728l3.42-1.763z" class="D F"/><path d="M138.1 74.523l-2.52 1.384v-5.45l2.52-1.3z" class="C D"/><path d="M136.68 75.305l.4-.22v-5.4l-.4.208zm-8.52 5.138l-3.44 1.803v-6.74l3.44-1.773z" class="D F"/><path d="M127.74 80l-2.53 1.392V75.93l2.53-1.304z" class="C D"/><path d="M126.3 80.787l.4-.224v-5.4l-.4.207zm-16.72 2.337l3.43 1.804v-6.74l-3.43-1.775z" class="D F"/><path d="M110 82.682l2.53 1.4V78.61L110 77.305z" class="C D"/><path d="M111.42 83.467l-.4-.223v-5.4l.4.208z" class="D F"/><defs><path id="Ba" d="M80.887 79.617v11.768l5.185-2.994V76.625z"/></defs><clipPath id="Bb"><use xlink:href="#Ba"/></clipPath><linearGradient id="Bc" x1="80.883" x2="86.068" y1="84.019" y2="84.019" gradientUnits="userSpaceOnUse"><stop stop-color="#dcddff" offset="0"/><stop stop-color="#dbdcff" offset=".066"/><stop stop-color="#b6b9fe" offset="1"/></linearGradient><path clip-path="url(#Bb)" fill="url(#Bc)" d="M80.887 76.625h5.185v14.76h-5.185z"/><defs><path id="Bd" d="M0 21.18h210v210H0z"/></defs><clipPath id="Be"><use xlink:href="#Bd"/></clipPath><path clip-path="url(#Be)" fill="#f9fafa" d="M74.19 81.537l-.97.56V70.333l.97-.56z"/><defs><path id="Bf" d="M69.093 84.574l11.794 6.81V79.617l-11.794-6.81z"/></defs><clipPath id="Bg"><use xlink:href="#Bf"/></clipPath><linearGradient id="Bh" x1="69.068" x2="80.862" y1="82.114" y2="82.114" gradientUnits="userSpaceOnUse"><stop stop-color="#dcddff" offset="0"/><stop stop-color="#dbdcff" offset=".066"/><stop stop-color="#b6b9fe" offset="1"/></linearGradient><path clip-path="url(#Bg)" fill="url(#Bh)" d="M69.093 72.808h11.794v18.577H69.093z"/><defs><path id="Bi" d="M80.89 79.682l5.013-2.987-8.676-9.24z"/></defs><clipPath id="Bj"><use xlink:href="#Bi"/></clipPath><linearGradient id="Bk" x1="85.929" x2="77.253" y1="73.576" y2="73.576" gradientUnits="userSpaceOnUse"><stop stop-color="#dfe0ff" offset="0"/><stop stop-color="#dfe0ff" offset=".102"/><stop stop-color="#f6ffff" offset=".827"/><stop stop-color="#f2f9ff" offset=".904"/><stop stop-color="#e8e9ff" offset="1"/></linearGradient><path clip-path="url(#Bj)" fill="url(#Bk)" d="M77.226 67.455h8.676v12.227h-8.676z"/><defs><path id="Bl" d="M0 21.18h210v210H0z"/></defs><clipPath id="Bm"><use xlink:href="#Bl"/></clipPath><path d="M72.08 78.617v8.26l-.502-.3.001-8.262z" class="G O"/><path d="M76.31 88.97L72.383 86.7V78.44l3.926 2.268z" class="E G"/><use xlink:href="#B" fill="#dcd3c3" class="G"/><use xlink:href="#B" fill="#a8b7f6" class="G"/><path d="M76.007 81.464l-3.98-2.297v-.58l3.98 2.295z" class="G O"/><use xlink:href="#C" fill="#ab9589" class="G"/><use xlink:href="#C" fill="#e8e9ff" class="G"/><defs><path id="Bn" d="M76.005 80.893v8.26l.5-.29v-8.26z"/></defs><clipPath id="Bo"><use xlink:href="#Bn"/></clipPath><linearGradient id="Bp" x1="76.509" x2="76.008" y1="84.873" y2="84.873" gradientUnits="userSpaceOnUse"><stop stop-color="#dcddff" offset="0"/><stop stop-color="#dbdcff" offset=".066"/><stop stop-color="#b6b9fe" offset="1"/></linearGradient><path clip-path="url(#Bo)" fill="url(#Bp)" d="M76.005 80.603h.5v8.552h-.5z"/><defs><path id="Bq" d="M0 21.18h210v210H0z"/></defs><clipPath id="Br"><use xlink:href="#Bq"/></clipPath><path clip-path="url(#Br)" d="M76.005 89.153l-.5-.3v-8.26l.5.3z" class="O"/><defs><path id="Bs" d="M71.577 86.59l.5.29v-7.683l3.426 1.978v7.7l.5.29v-7.69l.003.001v-.58l-3.93-2.266-.5-.29z"/></defs><clipPath id="Bt"><use xlink:href="#Bs"/></clipPath><linearGradient id="Bu" x1="76.008" x2="71.577" y1="83.746" y2="83.746" gradientUnits="userSpaceOnUse"><stop stop-color="#dcddff" offset="0"/><stop stop-color="#dbdcff" offset=".066"/><stop stop-color="#b6b9fe" offset="1"/></linearGradient><path clip-path="url(#Bt)" fill="url(#Bu)" d="M71.577 78.326h4.43v10.828h-4.43z"/><defs><path id="Bv" d="M0 21.18h210v210H0z"/></defs><clipPath id="Bw"><use xlink:href="#Bv"/></clipPath><path clip-path="url(#Bw)" d="M75.504 88.503v.36l-3.425-1.987.304-.174z" class="C"/><defs><path id="Bx" d="M69.006 72.766l11.88 6.85-3.604-12.162z"/></defs><clipPath id="By"><use xlink:href="#Bx"/></clipPath><linearGradient id="Bz" x1="80.867" x2="68.986" y1="73.571" y2="73.571" gradientUnits="userSpaceOnUse"><stop stop-color="#dfe0ff" offset="0"/><stop stop-color="#dfe0ff" offset=".102"/><stop stop-color="#f6ffff" offset=".827"/><stop stop-color="#f2f9ff" offset=".904"/><stop stop-color="#e8e9ff" offset="1"/></linearGradient><path clip-path="url(#By)" fill="url(#Bz)" d="M69.006 67.455h11.88v12.162h-11.88z"/><defs><path id="CA" d="M0 21.18h210v210H0z"/></defs><clipPath id="CB"><use xlink:href="#CA"/></clipPath><path d="M79.01 82.816c.093.056.093.142 0 .196s-.245.054-.338 0-.09-.14 0-.196a.38.38 0 0 1 .338 0" fill="#a69989" class="B"/><path fill="#6d6e6f" d="M79.567 82.993l-.717.414-.714-.414.714-.412z" class="B"/><path d="M79.655 82.803l-.805.463-.802-.463.802-.463z" class="B E"/><g class="L"><path d="M78.85 83.407l-.803-.463v-.14l.803.463z" class="B"/><path d="M79.655 82.943l-.805.463v-.14l.805-.465zm-.805.23l-.65-.376-.65-1.88 1.3.752z" class="B"/><path d="M79.504 82.795l-.654.377v-1.506l1.305-.752z" class="B"/></g><path d="M78.77 82.98l-.525-.3-.53-1.525 1.055.612zm.683-.3l-.527.3v-1.215l1.054-.6z" class="B" fill="#f3ead8"/><path d="M80.36 80.797l-1.512.87-1.507-.87 1.507-.87z" class="B E"/><g class="L"><path d="M78.85 81.836l-1.507-.873v-.166l1.507.87z" class="B"/><path d="M80.36 80.963l-1.512.873v-.168l1.512-.87zm-1.5-.53v1.12l-1.3-.752.65-.743z" class="B"/><path d="M80.155 80.8l-1.306.752v-1.12l.655-.377z" class="B"/></g><path d="M79.504 80.055l-.654.377-.65-.377.65-.375z" class="B E"/><path d="M70.18 77.575c.093.056.093.142 0 .196a.37.37 0 0 1-.337 0c-.093-.053-.093-.14.001-.196a.37.37 0 0 1 .336 0" fill="#a69989" class="B"/><path fill="#6d6e6f" d="M70.734 77.752l-.714.414-.715-.414.715-.414z" class="B"/><path d="M70.823 77.56l-.804.462-.802-.462.802-.464z" class="B E"/><g class="L"><path d="M70.02 78.166l-.804-.465v-.14l.804.462z" class="B"/><path d="M70.823 77.7l-.804.465v-.143l.804-.462zm-.803.228l-.65-.375-.652-1.88 1.303.754z" class="B"/><path d="M70.67 77.553l-.65.375v-1.502l1.303-.754z" class="B"/></g><path d="M69.94 77.74l-.525-.304-.53-1.523 1.054.608zm.68-.304l-.528.304v-1.22l1.056-.607z" class="B" fill="#f3ead8"/><path d="M71.53 75.555l-1.5.87-1.5-.87 1.5-.873z" class="B E"/><g class="L"><path d="M70.02 76.594l-1.5-.87v-.17l1.5.872zm1.5-.87l-1.5.87v-.168l1.5-.87zm-1.5-.533v1.12l-1.303-.752.652-.743z" class="B"/><path d="M71.323 75.557l-1.303.75V75.19l.65-.376z" class="B"/></g><path d="M70.67 74.813l-.65.376-.65-.376.65-.376z" class="B E"/><defs><path id="CC" d="M139.1 114.48l-.985 1.357a.48.48 0 0 0 .108.676.49.49 0 0 0 .676-.107l.982-1.36c.158-.215.1-.518-.105-.676-.086-.062-.186-.092-.283-.092a.48.48 0 0 0-.393.201"/></defs><clipPath id="CD"><use xlink:href="#CC"/></clipPath><linearGradient id="CE" x1="138.609" x2="139.392" y1="115.174" y2="115.743" gradientUnits="userSpaceOnUse"><stop stop-color="#3eaaef" offset="0"/><stop stop-color="#427ee5" offset="1"/></linearGradient><path clip-path="url(#CD)" fill="url(#CE)" d="M138.7 113.3l2.5 1.8-1.86 2.56-2.5-1.82z"/><defs><path id="CF" d="M140.18 113.9l-1.175 2.445a.55.55 0 0 0 .258.731c.273.13.6.016.73-.258l1.174-2.443a.55.55 0 0 0-.258-.731.54.54 0 0 0-.236-.054.55.55 0 0 0-.494.31"/></defs><clipPath id="CG"><use xlink:href="#CF"/></clipPath><linearGradient id="CH" x1="139.578" x2="140.568" y1="115.146" y2="115.621" gradientUnits="userSpaceOnUse"><stop stop-color="#3eaaef" offset="0"/><stop stop-color="#427ee5" offset="1"/></linearGradient><path clip-path="url(#CG)" fill="url(#CH)" d="M139.33 112.64l3.4 1.62-1.87 3.9-3.38-1.63z"/><defs><path id="CI" d="M139.36 116.42a.48.48 0 0 0-.431.531l.19 1.86c.03.266.264.46.53.432s.46-.265.434-.53l-.193-1.862c-.026-.25-.236-.433-.48-.433-.017 0-.034.001-.05.003"/></defs><clipPath id="CJ"><use xlink:href="#CI"/></clipPath><linearGradient id="CK" x1="139.029" x2="139.993" y1="117.898" y2="117.798" gradientUnits="userSpaceOnUse"><stop stop-color="#3eaaef" offset="0"/><stop stop-color="#427ee5" offset="1"/></linearGradient><path clip-path="url(#CJ)" fill="url(#CK)" d="M138.6 116.45l1.5-.16.3 2.95-1.5.16z"/><defs><path id="CL" d="M141.26 114.2l-1.173 2.442c-.132.274-.018.603.257.733s.6.016.73-.258l1.174-2.444c.132-.272.016-.6-.256-.73a.55.55 0 0 0-.732.258"/></defs><clipPath id="CM"><use xlink:href="#CL"/></clipPath><linearGradient id="CN" x1="140.654" x2="141.642" y1="115.445" y2="115.919" gradientUnits="userSpaceOnUse"><stop stop-color="#3eaaef" offset="0"/><stop stop-color="#427ee5" offset="1"/></linearGradient><path clip-path="url(#CM)" fill="url(#CN)" d="M140.4 112.94l3.4 1.62-1.87 3.9-3.38-1.62z"/><defs><path id="CO" d="M140.43 116.72c-.265.027-.457.266-.43.53l.193 1.863c.026.265.266.46.53.432s.458-.266.432-.532l-.19-1.862c-.027-.248-.236-.434-.48-.434l-.054.002"/></defs><clipPath id="CP"><use xlink:href="#CO"/></clipPath><linearGradient id="CQ" x1="140.107" x2="141.071" y1="118.199" y2="118.098" gradientUnits="userSpaceOnUse"><stop stop-color="#3eaaef" offset="0"/><stop stop-color="#427ee5" offset="1"/></linearGradient><path clip-path="url(#CP)" fill="url(#CQ)" d="M139.68 116.75l1.5-.16.3 2.95-1.5.16z"/><defs><path id="CR" d="M142.38 114.38l-1.173 2.44a.55.55 0 0 0 .256.735.55.55 0 0 0 .733-.258l1.174-2.444a.55.55 0 0 0-.257-.732c-.077-.036-.158-.055-.238-.055a.55.55 0 0 0-.495.313"/></defs><clipPath id="CS"><use xlink:href="#CR"/></clipPath><linearGradient id="CT" x1="141.781" x2="142.771" y1="115.635" y2="116.11" gradientUnits="userSpaceOnUse"><stop stop-color="#3eaaef" offset="0"/><stop stop-color="#427ee5" offset="1"/></linearGradient><path clip-path="url(#CS)" fill="url(#CT)" d="M141.53 113.12l3.4 1.63-1.87 3.9-3.38-1.63z"/><defs><path id="CU" d="M141.56 116.9c-.266.026-.46.265-.433.53l.194 1.862a.48.48 0 0 0 .962-.1l-.192-1.863c-.025-.245-.235-.432-.48-.432-.017 0-.034.002-.05.004"/></defs><clipPath id="CV"><use xlink:href="#CU"/></clipPath><linearGradient id="CW" x1="141.229" x2="142.195" y1="118.381" y2="118.281" gradientUnits="userSpaceOnUse"><stop stop-color="#3eaaef" offset="0"/><stop stop-color="#427ee5" offset="1"/></linearGradient><path clip-path="url(#CV)" fill="url(#CW)" d="M140.8 116.93l1.5-.15.3 2.95-1.5.15z"/><defs><path id="CX" d="M139.08 114.05s1.712 1.996 4.394 1.29l2.592-6.255s-2.886-.235-4.697-2.11c-.001 0-1.517 4.118-2.29 7.075"/></defs><clipPath id="CY"><use xlink:href="#CX"/></clipPath><linearGradient id="CZ" x1="139.823" x2="144.794" y1="110.184" y2="112.571" gradientUnits="userSpaceOnUse"><stop stop-color="#dfe0ff" offset="0"/><stop stop-color="#dfe0ff" offset=".102"/><stop stop-color="#f6ffff" offset=".827"/><stop stop-color="#f2f9ff" offset=".904"/><stop stop-color="#e8e9ff" offset="1"/></linearGradient><path clip-path="url(#CY)" fill="url(#CZ)" d="M140.4 104.25l9.2 4.42-4.84 10.1-9.22-4.42z"/><defs><path id="Ca" d="M141.54 106.22a2.73 2.73 0 0 0 1.278 3.638 2.73 2.73 0 0 0 3.637-1.277c.653-1.357.08-2.986-1.276-3.637-.38-.183-.782-.27-1.18-.27-1.015 0-2 .568-2.46 1.546"/></defs><clipPath id="Cb"><use xlink:href="#Ca"/></clipPath><linearGradient id="Cc" x1="141.467" x2="146.382" y1="106.379" y2="108.74" gradientUnits="userSpaceOnUse"><stop stop-color="#3eaaef" offset="0"/><stop stop-color="#427ee5" offset="1"/></linearGradient><path clip-path="url(#Cb)" fill="url(#Cc)" d="M142.06 102.24l7.33 3.53-3.45 7.16-7.33-3.52z"/><defs><path id="Cd" d="M144.65 102.67c-.963.964-1.84 1.95-2.452 2.777 0 0-.816 1.057-.174 1.642s1.684-.298 1.684-.298 1.588-.227 2.957.77c0 0 1.07-1.46 1.852-3.894 0 0 .1-1.304-.845-3.91l-3.022 2.914"/></defs><clipPath id="Ce"><use xlink:href="#Cd"/></clipPath><linearGradient id="Cf" x1="143.368" x2="147.993" y1="102.927" y2="105.148" gradientUnits="userSpaceOnUse"><stop stop-color="#dfe0ff" offset="0"/><stop stop-color="#dfe0ff" offset=".102"/><stop stop-color="#f6ffff" offset=".827"/><stop stop-color="#f2f9ff" offset=".904"/><stop stop-color="#e8e9ff" offset="1"/></linearGradient><path clip-path="url(#Ce)" fill="url(#Cf)" d="M142.73 96.938l8.97 4.302-4.45 9.26-8.96-4.3z"/><defs><path id="Cg" d="M142.58 105.56c-.382.383-.507.88-.278 1.106s.726.106 1.106-.275.507-.88.28-1.106a.43.43 0 0 0-.313-.116c-.24 0-.542.14-.794.39"/></defs><clipPath id="Ch"><use xlink:href="#Cg"/></clipPath><linearGradient id="Ci" x1="142.394" x2="143.551" y1="105.751" y2="106.306" gradientUnits="userSpaceOnUse"><stop stop-color="#3eaaef" offset="0"/><stop stop-color="#427ee5" offset="1"/></linearGradient><path clip-path="url(#Ch)" fill="url(#Ci)" d="M142.42 104.45l2.17 1.05-1.02 2.12-2.17-1.04z"/><defs><path id="Cj" d="M0 21.18h210v210H0z"/></defs><clipPath id="Ck"><use xlink:href="#Cj"/></clipPath><path d="M147.8 100.2s1.673 3.87-.644 7.266" clip-path="url(#Ck)" fill="none" stroke="#7591f9" class="T U V"/><defs><path id="Cl" d="M150.8 137.3c-.587.39-1.34.6-2.1.628-.54.018-1.082-.05-1.578-.213-.317-.102-.612-.24-.876-.415s-.47-.375-.624-.584a1.62 1.62 0 0 1-.314-.921l.003 1.076a1.57 1.57 0 0 0 .315.923 2.41 2.41 0 0 0 .62.583c.26.173.562.314.876.42a4.7 4.7 0 0 0 1.578.209c.77-.03 1.526-.238 2.112-.628.636-.42.955-.975.953-1.528l.002-1.078c0 .554-.32 1.107-.957 1.53"/></defs><clipPath id="Cm"><use xlink:href="#Cl"/></clipPath><linearGradient id="Cn" x1="151.771" x2="145.311" y1="137.386" y2="137.386" gradientUnits="userSpaceOnUse"><stop stop-color="#6a6a6a" offset="0"/><stop stop-color="#6a6a6a" offset=".051"/><stop stop-color="#363636" offset="1"/></linearGradient><path clip-path="url(#Cm)" fill="url(#Cn)" d="M145.3 135.77h6.46v3.253h-6.46z"/><defs><path id="Co" d="M0 21.18h210v210H0z"/></defs><clipPath id="Cp"><use xlink:href="#Co"/></clipPath><path d="M146.25 134.26c-1.27.84-1.274 2.197-.02 3.038s3.302.838 4.564 0c1.268-.84 1.276-2.2.018-3.038s-3.3-.84-4.562 0" clip-path="url(#Cp)" fill="#1d2a36"/><defs><path id="Cq" d="M148.54 131.13c.24-.001.48-.025.71-.07a3.73 3.73 0 0 1-.598.072l-.022.001c-.03 0-.06-.002-.09-.002m.94-.123l-.225.052.225-.052m-2.102-.048l-.034-.013.088.027-.054-.014m2.32-.02l-.2.062.2-.062m.21-.08l-.176.07.176-.07m.202-.094l-.157.076.157-.076m.2-.116l-.148.09.148-.09m-4.142-.496c-.02-.026-.03-.053-.046-.08.054.088.122.174.202.257-.057-.058-.1-.116-.156-.178l-.393 3.765.393-3.765zm.52-1.98c-.553.365-.804.852-.764 1.33l-.008-.092-.763 6.367c0 .327.107.657.328.96.156.22.37.425.646.61s.586.327.915.44c.516.163 1.086.235 1.648.218v-.046.046c.8-.032 1.6-.25 2.2-.657.666-.44 1-1.017.998-1.594l-.076-.623-.095-.798-.594-4.942c0 .423-.235.847-.698 1.177.944-.68.93-1.735-.06-2.395-.506-.34-1.172-.51-1.837-.51s-1.33.17-1.84.5"/></defs><clipPath id="Cr"><use xlink:href="#Cq"/></clipPath><linearGradient id="Cs" x1="145.148" x2="151.885" y1="132.835" y2="132.835" gradientUnits="userSpaceOnUse"><stop stop-color="#dcddff" offset="0"/><stop stop-color="#dbdcff" offset=".066"/><stop stop-color="#aba7f3" offset="1"/></linearGradient><path clip-path="url(#Cr)" fill="url(#Cs)" d="M145.15 127.67h6.737v10.358h-6.737z"/><defs><path id="Ct" d="M0 21.18h210v210H0z"/></defs><clipPath id="Cu"><use xlink:href="#Ct"/></clipPath><g class="E"><path d="M147.46 126.62l.002 2.566c0 .11.035.22.108.32v-2.566a.57.57 0 0 1-.109-.32" class="H"/><path d="M147.57 126.94v2.565c.053.073.124.143.216.203s.194.108.305.146v-2.568c-.1-.036-.214-.082-.305-.146-.09-.057-.163-.127-.217-.2" class="H"/><path d="M148.1 127.3v2.567c.173.055.363.078.55.072v-2.565a1.6 1.6 0 0 1-.55-.074" class="H"/><path d="M148.64 127.36v2.565c.266-.01.53-.082.733-.218.22-.146.33-.338.33-.53V126.6c0 .192-.11.384-.33.53-.206.137-.468.2-.733.22" class="H"/><path d="M147.8 126.1c-.44.29-.44.762-.006 1.054s1.147.293 1.587 0 .442-.763.005-1.054a1.55 1.55 0 0 0-1.586 0" class="H"/></g><defs><path id="Cv" d="M150.9 135.22c-.6.408-1.4.626-2.2.656h-.007a4.85 4.85 0 0 1-.4-.003l-.175-.015-.22-.018-.39-.066a1.88 1.88 0 0 1-.19-.047l-.22-.055-.048-.015c-.33-.1-.642-.255-.915-.438-.22-.15-.406-.312-.552-.488l-.095-.12c-.063-.083-.113-.17-.158-.26l-.097.8c.055.17.14.334.255.495.156.218.37.425.646.606s.586.33.915.44c.017.008.035.01.05.015.045.015.092.023.137.038l.235.06.163.028.24.04.214.02.193.015.416.005c.8-.03 1.6-.248 2.2-.66.483-.317.79-.71.922-1.12l-.095-.798c-.16.325-.436.63-.826.887"/></defs><clipPath id="Cw"><use xlink:href="#Cv"/></clipPath><linearGradient id="Cx" x1="150.047" x2="146.27" y1="137.156" y2="133.38" gradientUnits="userSpaceOnUse"><stop stop-color="#38ebff" offset="0"/><stop stop-color="#4557dc" offset="1"/></linearGradient><path clip-path="url(#Cw)" fill="url(#Cx)" d="M153.1 135.63l-4.58-4.6-4.6 4.6 4.6 4.58z"/><defs><path id="Cy" d="M158.7 141.07c-.586.392-1.342.6-2.11.63-.54.017-1.083-.053-1.58-.214a3.55 3.55 0 0 1-.873-.416 2.44 2.44 0 0 1-.626-.584c-.204-.29-.3-.606-.314-.92l.005 1.077c0 .315.103.628.313.922.152.21.357.407.622.583.26.175.56.315.874.42a4.68 4.68 0 0 0 1.58.208c.768-.027 1.525-.236 2.1-.628.637-.42.957-.974.953-1.526l.004-1.078c0 .554-.32 1.105-.958 1.527"/></defs><clipPath id="Cz"><use xlink:href="#Cy"/></clipPath><linearGradient id="DA" x1="159.654" x2="153.193" y1="141.165" y2="141.165" gradientUnits="userSpaceOnUse"><stop stop-color="#6a6a6a" offset="0"/><stop stop-color="#6a6a6a" offset=".051"/><stop stop-color="#363636" offset="1"/></linearGradient><path clip-path="url(#Cz)" fill="url(#DA)" d="M153.2 139.55h6.462v3.252H153.2z"/><defs><path id="DB" d="M0 21.18h210v210H0z"/></defs><clipPath id="DC"><use xlink:href="#DB"/></clipPath><path d="M154.15 138.04c-1.27.84-1.274 2.198-.018 3.038s3.3.84 4.563 0 1.276-2.198.017-3.038-3.3-.84-4.562 0" clip-path="url(#DC)" fill="#1d2a36"/><defs><path id="DD" d="M156.43 134.9c.24-.003.48-.026.712-.07a3.7 3.7 0 0 1-.599.071c-.01.001-.02.001-.028.001-.028 0-.057-.001-.085-.001m1.16-.2l-.2.062.2-.062m-2.32.018c-.02-.01-.04-.016-.062-.02l.11.035-.05-.014m2.53-.098l-.175.068.175-.068m.2-.095l-.155.077.155-.077m.202-.116l-.15.088.15-.088m-4.142-.496l-.392 3.765.392-3.765zm-.042-.07c.056.084.12.167.2.247-.058-.058-.11-.117-.157-.18l-.042-.068m.56-1.91c-.55.364-.802.853-.762 1.33-.003-.03-.01-.062-.01-.093l-.762 6.368c0 .33.107.657.328.96.16.22.372.426.647.61s.585.33.914.438c.515.164 1.088.237 1.647.22v-.046.046c.803-.03 1.59-.25 2.202-.658.667-.44 1-1.016.997-1.592l-.075-.622-.095-.8-.596-4.942c0 .424-.234.847-.697 1.178.944-.68.93-1.737-.062-2.396-.506-.34-1.17-.5-1.837-.5s-1.33.17-1.84.51"/></defs><clipPath id="DE"><use xlink:href="#DD"/></clipPath><linearGradient id="DF" x1="153.034" x2="159.777" y1="136.607" y2="136.607" gradientUnits="userSpaceOnUse"><stop stop-color="#dcddff" offset="0"/><stop stop-color="#dbdcff" offset=".066"/><stop stop-color="#aba7f3" offset="1"/></linearGradient><path clip-path="url(#DE)" fill="url(#DF)" d="M153.05 131.44h6.74v10.36h-6.74z"/><defs><path id="DG" d="M0 21.18h210v210H0z"/></defs><clipPath id="DH"><use xlink:href="#DG"/></clipPath><g class="E"><path d="M155.35 130.4l.002 2.566a.54.54 0 0 0 .109.319l-.002-2.565c-.07-.1-.107-.21-.11-.32" class="I"/><path d="M155.46 130.72l.002 2.565c.053.073.123.142.216.205a1.35 1.35 0 0 0 .304.144v-2.567a1.15 1.15 0 0 1-.304-.145.87.87 0 0 1-.218-.202" class="I"/><path d="M155.98 131.07v2.567c.172.055.362.08.548.073v-2.566c-.186.007-.376-.017-.548-.074" class="I"/><path d="M156.53 131.14v2.566a1.45 1.45 0 0 0 .734-.218c.22-.146.332-.34.332-.533V130.4c0 .192-.112.385-.332.53-.204.136-.466.208-.734.22" class="I"/><path d="M155.7 129.87c-.44.29-.44.764-.005 1.055s1.146.29 1.586 0 .442-.764.004-1.055-1.147-.292-1.585 0" class="I"/></g><defs><path id="DI" d="M158.78 139c-.61.4-1.4.626-2.202.656h-.006c-.133.005-.268.005-.4-.003l-.176-.014-.218-.02-.2-.03-.188-.034c-.065-.012-.13-.03-.192-.046l-.218-.055-.05-.018c-.33-.108-.642-.254-.914-.438a2.58 2.58 0 0 1-.553-.488l-.095-.12c-.06-.084-.112-.17-.158-.26l-.096.8a1.82 1.82 0 0 0 .254.495c.16.218.372.424.647.605s.585.33.914.438c.018.008.034.01.052.016.046.016.092.023.136.037l.235.06.164.027.24.04c.07.01.143.014.214.02l.193.017.414.002c.803-.028 1.59-.25 2.202-.658.482-.315.792-.708.922-1.118l-.095-.8c-.16.326-.435.632-.826.888"/></defs><clipPath id="DJ"><use xlink:href="#DI"/></clipPath><linearGradient id="DK" x1="157.94" x2="154.162" y1="140.928" y2="137.15" gradientUnits="userSpaceOnUse"><stop stop-color="#38ebff" offset="0"/><stop stop-color="#4557dc" offset="1"/></linearGradient><path clip-path="url(#DJ)" fill="url(#DK)" d="M161 139.4l-4.6-4.58-4.58 4.58 4.58 4.6z"/><defs><path id="DL" d="M145.76 88.25l-.2.078-2.9 1.83.2-.076.23-.012.26.057.28.126 16.72 9.847.27.2.26.24.23.28.2.3.16.34.13.34.08.34.03.34.01 31.67-.03.3-.08.25-.13.2-.17.14 2.9-1.83.17-.14.13-.2.08-.26.02-.3v-31.67l-.03-.34-.08-.342-.13-.343-.17-.33-.2-.312-.23-.28-.26-.24-.28-.193-16.72-9.846-.27-.127-.26-.056z"/></defs><clipPath id="DM"><use xlink:href="#DL"/></clipPath><linearGradient id="DN" x1="164.584" x2="142.61" y1="111.661" y2="111.661" gradientUnits="userSpaceOnUse"><stop stop-color="#3cc1f5" offset="0"/><stop stop-color="#4185e7" offset="1"/></linearGradient><path clip-path="url(#DM)" fill="url(#DN)" d="M142.65 88.238h21.976v46.804H142.65z"/><defs><path id="DO" d="M143.1 91.773l.004 31.178a1.36 1.36 0 0 0 .618 1.068l16.52 9.73c.34.197.62.038.62-.355l-.008-31.18a1.37 1.37 0 0 0-.617-1.07l-16.52-9.73c-.098-.057-.19-.084-.273-.084-.204 0-.344.162-.344.44"/></defs><clipPath id="DP"><use xlink:href="#DO"/></clipPath><linearGradient id="DQ" x1="160.917" x2="143.155" y1="112.625" y2="112.625" gradientUnits="userSpaceOnUse"><stop stop-color="#3cc1f5" offset="0"/><stop stop-color="#4185e7" offset="1"/></linearGradient><path clip-path="url(#DP)" fill="url(#DQ)" d="M143.1 91.332h17.762v42.616H143.1z"/><defs><path id="DR" d="M160.24 133.75l-16.52-9.73a1.36 1.36 0 0 1-.618-1.068l-.002-31.18c-.002-.393.275-.552.615-.356l16.522 9.73c.338.198.614.676.614 1.07l.008 31.18c0 .28-.14.44-.343.44a.56.56 0 0 1-.275-.084m-17.998-42.702l.006 31.673c0 .872.618 1.942 1.372 2.378l16.72 9.847c.758.438 1.374.08 1.374-.793l-.003-31.675c-.003-.874-.622-1.943-1.377-2.38l-16.72-9.845c-.218-.126-.425-.187-.608-.187-.452 0-.765.362-.765.983"/></defs><clipPath id="DS"><use xlink:href="#DR"/></clipPath><linearGradient id="DT" x1="161.776" x2="142.303" y1="112.737" y2="112.737" gradientUnits="userSpaceOnUse"><stop stop-color="#edeeff" offset="0"/><stop stop-color="#dbdcff" offset=".383"/><stop stop-color="#b6b9fe" offset="1"/></linearGradient><path clip-path="url(#DS)" fill="url(#DT)" d="M142.24 90.066h19.472v45.317H142.24z"/><defs><path id="DU" d="M167.3 129.97l-.087 1.675c-.014.27.193.496.46.51s.494-.19.51-.46l.085-1.674c.014-.267-.19-.495-.458-.508-.01-.001-.018-.001-.026-.001-.257 0-.47.202-.482.46"/></defs><clipPath id="DV"><use xlink:href="#DU"/></clipPath><linearGradient id="DW" x1="168.243" x2="167.276" y1="130.861" y2="130.812" gradientUnits="userSpaceOnUse"><stop stop-color="#3eaaef" offset="0"/><stop stop-color="#427ee5" offset="1"/></linearGradient><path clip-path="url(#DV)" fill="url(#DW)" d="M168.43 129.52l-1.22-.06-.13 2.7 1.2.07z"/><defs><path id="DX" d="M170.5 128.32a.55.55 0 0 0-.334.702l.904 2.555a.55.55 0 0 0 .703.334c.284-.102.435-.415.33-.7l-.903-2.555a.55.55 0 0 0-.519-.365.58.58 0 0 0-.182.03"/></defs><clipPath id="DY"><use xlink:href="#DX"/></clipPath><linearGradient id="DZ" x1="171.662" x2="170.628" y1="129.968" y2="130.335" gradientUnits="userSpaceOnUse"><stop stop-color="#3eaaef" offset="0"/><stop stop-color="#427ee5" offset="1"/></linearGradient><path clip-path="url(#DY)" fill="url(#DZ)" d="M171.96 127.62l-3.08 1.1 1.42 3.98 3.07-1.1z"/><defs><path id="Da" d="M171.16 131.63l-.392 1.83c-.054.263.113.52.375.574a.48.48 0 0 0 .573-.372l.4-1.828a.48.48 0 0 0-.372-.575c-.034-.007-.07-.01-.103-.01a.48.48 0 0 0-.471.382"/></defs><clipPath id="Db"><use xlink:href="#Da"/></clipPath><linearGradient id="Dc" x1="171.913" x2="170.965" y1="132.774" y2="132.572" gradientUnits="userSpaceOnUse"><stop stop-color="#3eaaef" offset="0"/><stop stop-color="#427ee5" offset="1"/></linearGradient><path clip-path="url(#Db)" fill="url(#Dc)" d="M172.74 131.37l-1.96-.42-.64 3 1.96.42z"/><defs><path id="Dd" d="M169.4 128.5c-.286.1-.436.415-.333.7l.905 2.554a.55.55 0 0 0 .7.336.55.55 0 0 0 .334-.702l-.906-2.554a.55.55 0 0 0-.517-.367.51.51 0 0 0-.183.032"/></defs><clipPath id="De"><use xlink:href="#Dd"/></clipPath><linearGradient id="Df" x1="170.56" x2="169.526" y1="130.14" y2="130.507" gradientUnits="userSpaceOnUse"><stop stop-color="#3eaaef" offset="0"/><stop stop-color="#427ee5" offset="1"/></linearGradient><path clip-path="url(#De)" fill="url(#Df)" d="M170.86 127.8l-3.08 1.1 1.42 4 3.07-1.1z"/><defs><path id="Dg" d="M170.06 131.8l-.39 1.83c-.055.26.11.518.372.574s.52-.11.574-.373l.392-1.83a.48.48 0 0 0-.372-.573.5.5 0 0 0-.103-.011c-.224 0-.425.155-.474.383"/></defs><clipPath id="Dh"><use xlink:href="#Dg"/></clipPath><linearGradient id="Di" x1="170.805" x2="169.857" y1="132.953" y2="132.75" gradientUnits="userSpaceOnUse"><stop stop-color="#3eaaef" offset="0"/><stop stop-color="#427ee5" offset="1"/></linearGradient><path clip-path="url(#Dh)" fill="url(#Di)" d="M171.65 131.55l-1.97-.42-.64 3.02 1.96.42z"/><defs><path id="Dj" d="M168.25 128.57a.55.55 0 0 0-.334.702l.906 2.555a.55.55 0 0 0 .701.334.55.55 0 0 0 .334-.702l-.904-2.555c-.08-.225-.294-.365-.52-.365-.06 0-.122.01-.182.03"/></defs><clipPath id="Dk"><use xlink:href="#Dj"/></clipPath><linearGradient id="Dl" x1="169.42" x2="168.383" y1="130.212" y2="130.58" gradientUnits="userSpaceOnUse"><stop stop-color="#3eaaef" offset="0"/><stop stop-color="#427ee5" offset="1"/></linearGradient><path clip-path="url(#Dk)" fill="url(#Dl)" d="M169.72 127.86l-3.08 1.1 1.4 3.98 3.08-1.1z"/><defs><path id="Dm" d="M168.92 131.87l-.39 1.83c-.057.263.1.52.373.575a.48.48 0 0 0 .573-.372l.392-1.832c.054-.26-.112-.518-.372-.572-.035-.008-.07-.01-.104-.01a.48.48 0 0 0-.471.382"/></defs><clipPath id="Dn"><use xlink:href="#Dm"/></clipPath><linearGradient id="Do" x1="169.676" x2="168.728" y1="133.004" y2="132.801" gradientUnits="userSpaceOnUse"><stop stop-color="#3eaaef" offset="0"/><stop stop-color="#427ee5" offset="1"/></linearGradient><path clip-path="url(#Dn)" fill="url(#Do)" d="M170.5 131.62l-1.96-.42-.64 3 1.96.42z"/><defs><path id="Dp" d="M165.25 123.33l1.913 6.494c2.6.987 4.503-.813 4.503-.813-.452-3.023-1.52-7.28-1.52-7.28-2 1.672-4.895 1.6-4.895 1.6"/></defs><clipPath id="Dq"><use xlink:href="#Dp"/></clipPath><linearGradient id="Dr" x1="171.356" x2="166.155" y1="125.249" y2="127.095" gradientUnits="userSpaceOnUse"><stop stop-color="#dfe0ff" offset="0"/><stop stop-color="#dfe0ff" offset=".102"/><stop stop-color="#f6ffff" offset=".827"/><stop stop-color="#f2f9ff" offset=".904"/><stop stop-color="#e8e9ff" offset="1"/></linearGradient><path clip-path="url(#Dq)" fill="url(#Dr)" d="M170.95 119.7l-8.56 3.04 3.58 10.1 8.56-3.04z"/><defs><path id="Ds" d="M166.57 119.3a2.73 2.73 0 0 0-1.658 3.482c.504 1.418 2.062 2.16 3.48 1.656s2.16-2.06 1.657-3.48c-.396-1.117-1.448-1.814-2.57-1.814a2.71 2.71 0 0 0-.91.156"/></defs><clipPath id="Dt"><use xlink:href="#Ds"/></clipPath><linearGradient id="Du" x1="170.131" x2="164.992" y1="121.116" y2="122.94" gradientUnits="userSpaceOnUse"><stop stop-color="#3eaaef" offset="0"/><stop stop-color="#427ee5" offset="1"/></linearGradient><path clip-path="url(#Dt)" fill="url(#Du)" d="M169.87 117.2l-7.3 2.6 2.52 7.08 7.28-2.58z"/><defs><path id="Dv" d="M163.4 117.7c.52 2.503 1.428 4.07 1.428 4.07 1.468-.845 3.02-.452 3.02-.452s.94.993 1.644.48.003-1.65.003-1.65c-.52-.888-1.288-1.962-2.145-3.024l-2.692-3.22c-1.21 2.492-1.26 3.797-1.26 3.797"/></defs><clipPath id="Dw"><use xlink:href="#Dv"/></clipPath><linearGradient id="Dx" x1="168.596" x2="163.761" y1="117.468" y2="119.184" gradientUnits="userSpaceOnUse"><stop stop-color="#dfe0ff" offset="0"/><stop stop-color="#dfe0ff" offset=".102"/><stop stop-color="#f6ffff" offset=".827"/><stop stop-color="#f2f9ff" offset=".904"/><stop stop-color="#e8e9ff" offset="1"/></linearGradient><path clip-path="url(#Dw)" fill="url(#Dx)" d="M169.43 111.75l-8.7 3.08 3.4 9.6 8.7-3.08z"/><defs><path id="Dy" d="M168.02 119.8c-.25.203-.182.708.158 1.132s.818.596 1.07.39.183-.71-.158-1.13c-.244-.3-.56-.477-.813-.477a.4.4 0 0 0-.258.085"/></defs><clipPath id="Dz"><use xlink:href="#Dy"/></clipPath><linearGradient id="EA" x1="169.26" x2="168.051" y1="120.417" y2="120.846" gradientUnits="userSpaceOnUse"><stop stop-color="#3eaaef" offset="0"/><stop stop-color="#427ee5" offset="1"/></linearGradient><path clip-path="url(#Dz)" fill="url(#EA)" d="M169.3 119.18l-2.1.75.77 2.15 2.1-.74z"/><defs><path id="EB" d="M0 21.18h210v210H0z"/></defs><clipPath id="EC"><use xlink:href="#EB"/></clipPath><path d="M164.48 114.32s-2.075 3.668-.134 7.293" fill="none" stroke="#7591f9" class="M T U V"/><g class="C"><path d="M114.03 161.92l.177.794c.001.213.156.43.43.587l8.223 4.74c.552.318 1.46.314 2.014-.006L126.67 167c.28-.16.417-.378.415-.6l-.006-.695c.003.214-.136.427-.413.59l-.734.427-.006-.933-1.475-.85-1.44.837.826.48.62-.36.646.37-.618.36-1.474-.85v.054l-.704-.408a2.3 2.3 0 0 0-.252-.589l.466-.27-.007-.957-1.472-.847-.33.2-.002-.383-1.472-.848-.325.188-.003-.38-1.474-.85-3.404 1.225z" class="M"/><path d="M114.03 161.92l.108 1.128c.21.628.332.935 1.354 1.44l7.368 4.27c.552.318 1.46.314 2.014-.006l1.265-.724c.28-.16.94-.755.944-1.61l-.006-.695" class="M"/></g><path d="M126.67 165.15l-8.407-4.848a2.24 2.24 0 0 0-2.017.007l-1.793 1.024c-.554.324-.555.848-.004 1.168l8.408 4.847c.555.318 1.46.315 2.014-.008l1.798-1.023c.552-.323.553-.847.001-1.167" fill="#f8f9fc" class="M"/><defs><path id="ED" d="M117.6 161.02l-.14.083c-.168.097-.167.257.001.354l.157.1c.168.098.442.097.61-.001l.14-.082c.168-.1.168-.256-.001-.354l-.157-.09c-.083-.048-.192-.072-.303-.072a.63.63 0 0 0-.307.073"/></defs><clipPath id="EE"><use xlink:href="#ED"/></clipPath><linearGradient id="EF" x1="117.346" x2="118.506" y1="161.294" y2="161.294" gradientUnits="userSpaceOnUse"><stop stop-color="#2e93ff" offset="0"/><stop stop-color="#2e93ff" offset=".046"/><stop stop-color="#3395f9" offset=".204"/><stop stop-color="#439ae9" offset=".41"/><stop stop-color="#509edb" offset=".541"/><stop stop-color="#509edb" offset="1"/></linearGradient><path clip-path="url(#EE)" fill="url(#EF)" d="M117.3 160.94h1.245v.697H117.3z"/><defs><path id="EG" d="M116.75 161.52l-.14.082c-.167.097-.167.257.001.354l.158.09c.168.096.442.096.6-.002l.14-.08c.168-.098.168-.257 0-.355l-.156-.1a.62.62 0 0 0-.306-.073.62.62 0 0 0-.306.074"/></defs><clipPath id="EH"><use xlink:href="#EG"/></clipPath><linearGradient id="EI" x1="116.486" x2="117.647" y1="161.793" y2="161.793" gradientUnits="userSpaceOnUse"><stop stop-color="#2e93ff" offset="0"/><stop stop-color="#2e93ff" offset=".046"/><stop stop-color="#3395f9" offset=".204"/><stop stop-color="#439ae9" offset=".41"/><stop stop-color="#509edb" offset=".541"/><stop stop-color="#509edb" offset="1"/></linearGradient><path clip-path="url(#EH)" fill="url(#EI)" d="M116.44 161.44h1.244v.697h-1.244z"/><defs><path id="EJ" d="M115.9 162.02l-.108.067c-.165.1-.162.264.006.36l.157.09a.65.65 0 0 0 .606-.01l.106-.065c.166-.103.163-.265-.005-.362l-.157-.1c-.08-.047-.187-.07-.293-.07-.112 0-.227.028-.312.08"/></defs><clipPath id="EK"><use xlink:href="#EJ"/></clipPath><linearGradient id="EL" x1="115.669" x2="116.79" y1="162.291" y2="162.291" gradientUnits="userSpaceOnUse"><stop stop-color="#2e93ff" offset="0"/><stop stop-color="#2e93ff" offset=".046"/><stop stop-color="#3395f9" offset=".204"/><stop stop-color="#439ae9" offset=".41"/><stop stop-color="#509edb" offset=".541"/><stop stop-color="#509edb" offset="1"/></linearGradient><path clip-path="url(#EK)" fill="url(#EL)" d="M115.63 161.94h1.207v.695h-1.207z"/><defs><path id="EM" d="M117.7 162.06l-.14.08c-.167.1-.167.257.001.354l.156.1a.68.68 0 0 0 .611-.001l.14-.082c.168-.098.168-.257-.001-.354l-.155-.1c-.084-.048-.193-.072-.304-.072s-.222.025-.307.074"/></defs><clipPath id="EN"><use xlink:href="#EM"/></clipPath><linearGradient id="EO" x1="117.429" x2="118.588" y1="162.332" y2="162.332" gradientUnits="userSpaceOnUse"><stop stop-color="#2e93ff" offset="0"/><stop stop-color="#2e93ff" offset=".046"/><stop stop-color="#3395f9" offset=".204"/><stop stop-color="#439ae9" offset=".41"/><stop stop-color="#509edb" offset=".541"/><stop stop-color="#509edb" offset="1"/></linearGradient><path clip-path="url(#EN)" fill="url(#EO)" d="M117.4 161.98h1.243v.696H117.4z"/><defs><path id="EP" d="M119.5 162.1l-.14.08c-.168.097-.168.256.001.354l.155.1a.68.68 0 0 0 .611-.002l.14-.082c.167-.098.167-.257-.001-.354l-.155-.1c-.084-.048-.193-.072-.304-.072a.65.65 0 0 0-.307.075"/></defs><clipPath id="EQ"><use xlink:href="#EP"/></clipPath><linearGradient id="ER" x1="119.221" x2="120.38" y1="162.379" y2="162.379" gradientUnits="userSpaceOnUse"><stop stop-color="#2e93ff" offset="0"/><stop stop-color="#2e93ff" offset=".046"/><stop stop-color="#3395f9" offset=".204"/><stop stop-color="#439ae9" offset=".41"/><stop stop-color="#509edb" offset=".541"/><stop stop-color="#509edb" offset="1"/></linearGradient><path clip-path="url(#EQ)" fill="url(#ER)" d="M119.18 162.03h1.243v.695h-1.243z"/><defs><path id="ES" d="M118.63 162.6l-.14.08c-.167.098-.167.257 0 .354l.156.1c.167.097.44.097.6-.001l.14-.082c.17-.1.17-.258-.001-.354l-.155-.09c-.083-.048-.194-.072-.305-.072s-.222.024-.307.073"/></defs><clipPath id="ET"><use xlink:href="#ES"/></clipPath><linearGradient id="EU" x1="118.367" x2="119.526" y1="162.876" y2="162.876" gradientUnits="userSpaceOnUse"><stop stop-color="#2e93ff" offset="0"/><stop stop-color="#2e93ff" offset=".046"/><stop stop-color="#3395f9" offset=".204"/><stop stop-color="#439ae9" offset=".41"/><stop stop-color="#509edb" offset=".541"/><stop stop-color="#509edb" offset="1"/></linearGradient><path clip-path="url(#ET)" fill="url(#EU)" d="M118.33 162.53h1.243v.695h-1.243z"/><defs><path id="EV" d="M117.78 163.1l-.14.082c-.168.097-.168.257.001.354l.155.1c.168.097.443.097.61-.002l.14-.08c.168-.098.168-.256 0-.354l-.155-.1a.62.62 0 0 0-.303-.072.61.61 0 0 0-.308.073"/></defs><clipPath id="EW"><use xlink:href="#EV"/></clipPath><linearGradient id="EX" x1="117.516" x2="118.675" y1="163.374" y2="163.374" gradientUnits="userSpaceOnUse"><stop stop-color="#2e93ff" offset="0"/><stop stop-color="#2e93ff" offset=".046"/><stop stop-color="#3395f9" offset=".204"/><stop stop-color="#439ae9" offset=".41"/><stop stop-color="#509edb" offset=".541"/><stop stop-color="#509edb" offset="1"/></linearGradient><path clip-path="url(#EW)" fill="url(#EX)" d="M117.47 163.02h1.243v.696h-1.243z"/><defs><path id="EY" d="M118.55 161.56l-.14.082c-.17.097-.17.257 0 .354l.155.09c.168.098.443.097.61-.001l.14-.082c.167-.098.167-.256-.001-.354l-.156-.1c-.084-.048-.194-.072-.304-.072s-.223.025-.307.074"/></defs><clipPath id="EZ"><use xlink:href="#EY"/></clipPath><linearGradient id="Ea" x1="118.287" x2="119.445" y1="161.835" y2="161.835" gradientUnits="userSpaceOnUse"><stop stop-color="#2e93ff" offset="0"/><stop stop-color="#2e93ff" offset=".046"/><stop stop-color="#3395f9" offset=".204"/><stop stop-color="#439ae9" offset=".41"/><stop stop-color="#509edb" offset=".541"/><stop stop-color="#509edb" offset="1"/></linearGradient><path clip-path="url(#EZ)" fill="url(#Ea)" d="M118.24 161.5h1.243v.697h-1.243z"/><defs><path id="Eb" d="M116.84 162.56l-.14.082c-.168.098-.168.257.001.354l.154.1a.68.68 0 0 0 .612-.002l.14-.08c.167-.1.167-.258-.001-.354l-.156-.1c-.084-.05-.194-.073-.305-.073s-.22.025-.305.074"/></defs><clipPath id="Ec"><use xlink:href="#Eb"/></clipPath><linearGradient id="Ed" x1="116.572" x2="117.732" y1="162.826" y2="162.826" gradientUnits="userSpaceOnUse"><stop stop-color="#2e93ff" offset="0"/><stop stop-color="#2e93ff" offset=".046"/><stop stop-color="#3395f9" offset=".204"/><stop stop-color="#439ae9" offset=".41"/><stop stop-color="#509edb" offset=".541"/><stop stop-color="#509edb" offset="1"/></linearGradient><path clip-path="url(#Ec)" fill="url(#Ed)" d="M116.53 162.48h1.243v.697h-1.243z"/><defs><path id="Ee" d="M124.1 164.7l-.14.08c-.168.098-.242.21-.166.25s.277-.007.444-.104l.14-.082c.168-.098.242-.21.166-.25-.02-.01-.045-.014-.076-.014a.83.83 0 0 0-.369.119"/></defs><clipPath id="Ef"><use xlink:href="#Ee"/></clipPath><linearGradient id="Eg" x1="123.761" x2="124.572" y1="164.83" y2="164.83" gradientUnits="userSpaceOnUse"><stop stop-color="#2e93ff" offset="0"/><stop stop-color="#2e93ff" offset=".046"/><stop stop-color="#3395f9" offset=".204"/><stop stop-color="#439ae9" offset=".41"/><stop stop-color="#509edb" offset=".541"/><stop stop-color="#509edb" offset="1"/></linearGradient><path clip-path="url(#Ef)" fill="url(#Eg)" d="M123.72 164.6h.903v.49h-.903z"/><defs><path id="Eh" d="M123.24 165.2l-.14.082c-.168.098-.24.21-.167.25s.278-.008.446-.104l.14-.08c.17-.098.24-.21.167-.25-.02-.01-.045-.014-.075-.014a.83.83 0 0 0-.37.118"/></defs><clipPath id="Ei"><use xlink:href="#Eh"/></clipPath><linearGradient id="Ej" x1="122.902" x2="123.713" y1="165.342" y2="165.342" gradientUnits="userSpaceOnUse"><stop stop-color="#2e93ff" offset="0"/><stop stop-color="#2e93ff" offset=".046"/><stop stop-color="#3395f9" offset=".204"/><stop stop-color="#439ae9" offset=".41"/><stop stop-color="#509edb" offset=".541"/><stop stop-color="#509edb" offset="1"/></linearGradient><path clip-path="url(#Ei)" fill="url(#Ej)" d="M122.86 165.1h.9v.492h-.9z"/><defs><path id="Ek" d="M122.4 165.7l-.108.066c-.165.103-.237.22-.16.26s.274-.01.44-.112l.105-.065c.166-.103.238-.22.162-.26-.018-.01-.043-.014-.073-.014a.8.8 0 0 0-.366.126"/></defs><clipPath id="El"><use xlink:href="#Ek"/></clipPath><linearGradient id="Em" x1="122.094" x2="122.863" y1="165.829" y2="165.829" gradientUnits="userSpaceOnUse"><stop stop-color="#2e93ff" offset="0"/><stop stop-color="#2e93ff" offset=".046"/><stop stop-color="#3395f9" offset=".204"/><stop stop-color="#439ae9" offset=".41"/><stop stop-color="#509edb" offset=".541"/><stop stop-color="#509edb" offset="1"/></linearGradient><path clip-path="url(#El)" fill="url(#Em)" d="M122.05 165.6h.86v.49h-.86z"/><defs><path id="En" d="M124.5 164.96l-.14.08c-.168.098-.243.212-.167.25s.276-.007.444-.104l.14-.082c.168-.098.243-.2.167-.25-.02-.01-.044-.014-.074-.014-.097 0-.243.045-.37.12"/></defs><clipPath id="Eo"><use xlink:href="#En"/></clipPath><linearGradient id="Ep" x1="124.17" x2="124.981" y1="165.081" y2="165.081" gradientUnits="userSpaceOnUse"><stop stop-color="#2e93ff" offset="0"/><stop stop-color="#2e93ff" offset=".046"/><stop stop-color="#3395f9" offset=".204"/><stop stop-color="#439ae9" offset=".41"/><stop stop-color="#509edb" offset=".541"/><stop stop-color="#509edb" offset="1"/></linearGradient><path clip-path="url(#Eo)" fill="url(#Ep)" d="M124.12 164.84h.904v.492h-.904z"/><defs><path id="Eq" d="M123.65 165.45l-.142.083c-.168.097-.242.2-.166.25s.277-.008.445-.105l.14-.08c.167-.098.243-.2.166-.25a.16.16 0 0 0-.074-.014c-.096 0-.242.044-.37.118"/></defs><clipPath id="Er"><use xlink:href="#Eq"/></clipPath><linearGradient id="Es" x1="123.32" x2="124.131" y1="165.582" y2="165.582" gradientUnits="userSpaceOnUse"><stop stop-color="#2e93ff" offset="0"/><stop stop-color="#2e93ff" offset=".046"/><stop stop-color="#3395f9" offset=".204"/><stop stop-color="#439ae9" offset=".41"/><stop stop-color="#509edb" offset=".541"/><stop stop-color="#509edb" offset="1"/></linearGradient><path clip-path="url(#Er)" fill="url(#Es)" d="M123.27 165.33h.904v.49h-.904z"/><defs><path id="Et" d="M122.8 165.96l-.106.066c-.165.103-.238.22-.16.26s.274-.01.438-.112l.107-.066c.166-.102.238-.218.163-.258-.02-.01-.043-.014-.073-.014-.096 0-.24.048-.368.125"/></defs><clipPath id="Eu"><use xlink:href="#Et"/></clipPath><linearGradient id="Ev" x1="122.507" x2="123.276" y1="166.076" y2="166.076" gradientUnits="userSpaceOnUse"><stop stop-color="#2e93ff" offset="0"/><stop stop-color="#2e93ff" offset=".046"/><stop stop-color="#3395f9" offset=".204"/><stop stop-color="#439ae9" offset=".41"/><stop stop-color="#509edb" offset=".541"/><stop stop-color="#509edb" offset="1"/></linearGradient><path clip-path="url(#Eu)" fill="url(#Ev)" d="M122.46 165.83h.86v.49h-.86z"/><defs><path id="Ew" d="M124.9 165.2l-.14.08c-.167.1-.243.21-.165.25s.275-.006.442-.104l.143-.082c.167-.097.24-.2.164-.25a.16.16 0 0 0-.074-.014.83.83 0 0 0-.37.12"/></defs><clipPath id="Ex"><use xlink:href="#Ew"/></clipPath><linearGradient id="Ey" x1="124.581" x2="125.392" y1="165.321" y2="165.321" gradientUnits="userSpaceOnUse"><stop stop-color="#2e93ff" offset="0"/><stop stop-color="#2e93ff" offset=".046"/><stop stop-color="#3395f9" offset=".204"/><stop stop-color="#439ae9" offset=".41"/><stop stop-color="#509edb" offset=".541"/><stop stop-color="#509edb" offset="1"/></linearGradient><path clip-path="url(#Ex)" fill="url(#Ey)" d="M124.53 165.08h.904v.5h-.904z"/><defs><path id="Ez" d="M124.06 165.7l-.142.082c-.168.098-.242.2-.165.25s.276-.008.444-.104l.14-.082c.168-.098.243-.2.167-.25-.02-.01-.045-.014-.076-.014-.097 0-.24.045-.368.118"/></defs><clipPath id="FA"><use xlink:href="#Ez"/></clipPath><linearGradient id="FB" x1="123.722" x2="124.534" y1="165.831" y2="165.831" gradientUnits="userSpaceOnUse"><stop stop-color="#2e93ff" offset="0"/><stop stop-color="#2e93ff" offset=".046"/><stop stop-color="#3395f9" offset=".204"/><stop stop-color="#439ae9" offset=".41"/><stop stop-color="#509edb" offset=".541"/><stop stop-color="#509edb" offset="1"/></linearGradient><path clip-path="url(#FA)" fill="url(#FB)" d="M123.68 165.58h.904v.5h-.904z"/><defs><path id="FC" d="M123.2 166.2l-.107.065c-.166.103-.237.218-.16.257s.274-.01.44-.11l.107-.065c.165-.1.237-.22.16-.26-.018-.01-.042-.014-.07-.014-.096 0-.242.048-.368.127"/></defs><clipPath id="FD"><use xlink:href="#FC"/></clipPath><linearGradient id="FE" x1="122.914" x2="123.683" y1="166.319" y2="166.319" gradientUnits="userSpaceOnUse"><stop stop-color="#2e93ff" offset="0"/><stop stop-color="#2e93ff" offset=".046"/><stop stop-color="#3395f9" offset=".204"/><stop stop-color="#439ae9" offset=".41"/><stop stop-color="#509edb" offset=".541"/><stop stop-color="#509edb" offset="1"/></linearGradient><path clip-path="url(#FD)" fill="url(#FE)" d="M122.86 166.08h.86v.5h-.86z"/><defs><path id="FF" d="M125.32 165.44l-.14.082c-.168.1-.242.21-.167.25s.277-.007.445-.104l.14-.082c.17-.098.242-.2.167-.25-.02-.01-.045-.014-.075-.014a.84.84 0 0 0-.37.118"/></defs><clipPath id="FG"><use xlink:href="#FF"/></clipPath><linearGradient id="FH" x1="124.981" x2="125.792" y1="165.571" y2="165.571" gradientUnits="userSpaceOnUse"><stop stop-color="#2e93ff" offset="0"/><stop stop-color="#2e93ff" offset=".046"/><stop stop-color="#3395f9" offset=".204"/><stop stop-color="#439ae9" offset=".41"/><stop stop-color="#509edb" offset=".541"/><stop stop-color="#509edb" offset="1"/></linearGradient><path clip-path="url(#FG)" fill="url(#FH)" d="M124.94 165.33h.902v.49h-.902z"/><defs><path id="FI" d="M124.47 165.94l-.14.08c-.166.1-.242.212-.165.25s.278-.006.446-.104l.14-.082c.168-.1.243-.21.166-.25-.02-.01-.044-.015-.074-.015-.097.001-.243.047-.37.12"/></defs><clipPath id="FJ"><use xlink:href="#FI"/></clipPath><linearGradient id="FK" x1="124.134" x2="124.945" y1="166.068" y2="166.068" gradientUnits="userSpaceOnUse"><stop stop-color="#2e93ff" offset="0"/><stop stop-color="#2e93ff" offset=".046"/><stop stop-color="#3395f9" offset=".204"/><stop stop-color="#439ae9" offset=".41"/><stop stop-color="#509edb" offset=".541"/><stop stop-color="#509edb" offset="1"/></linearGradient><path clip-path="url(#FJ)" fill="url(#FK)" d="M124.08 165.82h.905v.492h-.905z"/><defs><path id="FL" d="M123.62 166.45l-.107.067c-.165.103-.237.218-.16.258s.274-.01.44-.11l.107-.066c.165-.102.238-.22.16-.26-.018-.01-.042-.015-.07-.015-.096 0-.24.05-.37.126"/></defs><clipPath id="FM"><use xlink:href="#FL"/></clipPath><linearGradient id="FN" x1="123.321" x2="124.09" y1="166.572" y2="166.572" gradientUnits="userSpaceOnUse"><stop stop-color="#2e93ff" offset="0"/><stop stop-color="#2e93ff" offset=".046"/><stop stop-color="#3395f9" offset=".204"/><stop stop-color="#439ae9" offset=".41"/><stop stop-color="#509edb" offset=".541"/><stop stop-color="#509edb" offset="1"/></linearGradient><path clip-path="url(#FM)" fill="url(#FN)" d="M123.27 166.32h.86v.492h-.86z"/><defs><path id="FO" d="M125.73 165.7l-.14.08c-.168.1-.242.21-.166.25s.276-.007.444-.104l.14-.082c.168-.1.242-.21.166-.25-.02-.01-.045-.015-.075-.015-.097 0-.242.046-.37.12"/></defs><clipPath id="FP"><use xlink:href="#FO"/></clipPath><linearGradient id="FQ" x1="125.392" x2="126.203" y1="165.821" y2="165.821" gradientUnits="userSpaceOnUse"><stop stop-color="#2e93ff" offset="0"/><stop stop-color="#2e93ff" offset=".046"/><stop stop-color="#3395f9" offset=".204"/><stop stop-color="#439ae9" offset=".41"/><stop stop-color="#509edb" offset=".541"/><stop stop-color="#509edb" offset="1"/></linearGradient><path clip-path="url(#FP)" fill="url(#FQ)" d="M125.35 165.57h.903v.49h-.903z"/><defs><path id="FR" d="M124.87 166.2l-.14.082c-.17.098-.244.21-.167.25s.276-.007.445-.104l.14-.08c.168-.098.24-.21.167-.252-.02-.01-.044-.015-.075-.015-.096-.001-.242.044-.37.12"/></defs><clipPath id="FS"><use xlink:href="#FR"/></clipPath><linearGradient id="FT" x1="124.534" x2="125.345" y1="166.318" y2="166.318" gradientUnits="userSpaceOnUse"><stop stop-color="#2e93ff" offset="0"/><stop stop-color="#2e93ff" offset=".046"/><stop stop-color="#3395f9" offset=".204"/><stop stop-color="#439ae9" offset=".41"/><stop stop-color="#509edb" offset=".541"/><stop stop-color="#509edb" offset="1"/></linearGradient><path clip-path="url(#FS)" fill="url(#FT)" d="M124.5 166.07h.903v.492h-.903z"/><defs><path id="FU" d="M124.02 166.7l-.11.066c-.165.1-.237.217-.16.26s.274-.01.44-.113l.106-.065c.164-.102.238-.218.162-.26-.018-.01-.043-.014-.073-.014-.094 0-.24.047-.365.126"/></defs><clipPath id="FV"><use xlink:href="#FU"/></clipPath><linearGradient id="FW" x1="123.723" x2="124.493" y1="166.819" y2="166.819" gradientUnits="userSpaceOnUse"><stop stop-color="#2e93ff" offset="0"/><stop stop-color="#2e93ff" offset=".046"/><stop stop-color="#3395f9" offset=".204"/><stop stop-color="#439ae9" offset=".41"/><stop stop-color="#509edb" offset=".541"/><stop stop-color="#509edb" offset="1"/></linearGradient><path clip-path="url(#FV)" fill="url(#FW)" d="M123.68 166.57h.86v.49h-.86z"/><defs><path id="FX" d="M121.83 163.54l-.14.08c-.168.098-.168.257.001.354l.156.1c.167.097.443.097.61-.001l.14-.083c.17-.096.167-.255-.001-.352l-.156-.1c-.084-.05-.194-.074-.305-.074s-.222.025-.306.076"/></defs><clipPath id="FY"><use xlink:href="#FX"/></clipPath><linearGradient id="FZ" x1="121.571" x2="122.732" y1="163.808" y2="163.808" gradientUnits="userSpaceOnUse"><stop stop-color="#2e93ff" offset="0"/><stop stop-color="#2e93ff" offset=".046"/><stop stop-color="#3395f9" offset=".204"/><stop stop-color="#439ae9" offset=".41"/><stop stop-color="#509edb" offset=".541"/><stop stop-color="#509edb" offset="1"/></linearGradient><path clip-path="url(#FY)" fill="url(#FZ)" d="M121.52 163.46h1.246v.696h-1.246z"/><defs><path id="Fa" d="M120.16 164.52l-.14.082c-.168.097-.168.256 0 .354l.157.09c.168.096.442.096.61-.001l.14-.083c.168-.1.168-.257-.001-.354l-.157-.1a.63.63 0 0 0-.306-.073c-.112 0-.22.025-.305.074"/></defs><clipPath id="Fb"><use xlink:href="#Fa"/></clipPath><linearGradient id="Fc" x1="119.886" x2="121.047" y1="164.793" y2="164.793" gradientUnits="userSpaceOnUse"><stop stop-color="#2e93ff" offset="0"/><stop stop-color="#2e93ff" offset=".046"/><stop stop-color="#3395f9" offset=".204"/><stop stop-color="#439ae9" offset=".41"/><stop stop-color="#509edb" offset=".541"/><stop stop-color="#509edb" offset="1"/></linearGradient><path clip-path="url(#Fb)" fill="url(#Fc)" d="M119.85 164.44h1.245v.697h-1.245z"/><defs><path id="Fd" d="M120.15 163.54l-.143.08c-.167.098-.167.257.002.354l.155.09c.168.097.443.097.6-.001l.142-.084c.168-.097.167-.256-.001-.353l-.155-.088a.61.61 0 0 0-.305-.074.6.6 0 0 0-.305.075"/></defs><clipPath id="Fe"><use xlink:href="#Fd"/></clipPath><linearGradient id="Ff" x1="119.887" x2="121.046" y1="163.815" y2="163.815" gradientUnits="userSpaceOnUse"><stop stop-color="#2e93ff" offset="0"/><stop stop-color="#2e93ff" offset=".046"/><stop stop-color="#3395f9" offset=".204"/><stop stop-color="#439ae9" offset=".41"/><stop stop-color="#509edb" offset=".541"/><stop stop-color="#509edb" offset="1"/></linearGradient><path clip-path="url(#Fe)" fill="url(#Ff)" d="M119.84 163.46h1.244v.696h-1.244z"/><defs><path id="Fg" d="M120.98 164.03l-.14.08c-.168.1-.168.258 0 .354l.155.1a.68.68 0 0 0 .612 0l.14-.084c.168-.097.168-.256-.001-.352l-.155-.09a.61.61 0 0 0-.303-.072c-.11.001-.223.025-.308.075"/></defs><clipPath id="Fh"><use xlink:href="#Fg"/></clipPath><linearGradient id="Fi" x1="120.717" x2="121.876" y1="164.305" y2="164.305" gradientUnits="userSpaceOnUse"><stop stop-color="#2e93ff" offset="0"/><stop stop-color="#2e93ff" offset=".046"/><stop stop-color="#3395f9" offset=".204"/><stop stop-color="#439ae9" offset=".41"/><stop stop-color="#509edb" offset=".541"/><stop stop-color="#509edb" offset="1"/></linearGradient><path clip-path="url(#Fh)" fill="url(#Fi)" d="M120.68 163.96h1.243v.695h-1.243z"/><defs><path id="Fj" d="M121.8 164.53l-.14.082c-.168.1-.168.258 0 .354l.157.1c.167.097.44.097.6 0l.14-.083c.167-.098.167-.257-.001-.353l-.156-.09c-.083-.048-.192-.07-.303-.07s-.224.024-.31.072"/></defs><clipPath id="Fk"><use xlink:href="#Fj"/></clipPath><linearGradient id="Fl" x1="121.547" x2="122.706" y1="164.804" y2="164.804" gradientUnits="userSpaceOnUse"><stop stop-color="#2e93ff" offset="0"/><stop stop-color="#2e93ff" offset=".046"/><stop stop-color="#3395f9" offset=".204"/><stop stop-color="#439ae9" offset=".41"/><stop stop-color="#509edb" offset=".541"/><stop stop-color="#509edb" offset="1"/></linearGradient><path clip-path="url(#Fk)" fill="url(#Fl)" d="M121.5 164.46h1.243v.694H121.5z"/><defs><path id="Fm" d="M0 21.18h210v210H0z"/></defs><clipPath id="Fn"><use xlink:href="#Fm"/></clipPath><linearGradient id="Fo" x1="91.577" x2="99.602" y1="170.621" y2="170.621" gradientUnits="userSpaceOnUse"><stop stop-color="#2e6fff" offset="0"/><stop stop-color="#2e6fff" offset=".046"/><stop stop-color="#336bf9" offset=".203"/><stop stop-color="#435ee9" offset=".406"/><stop stop-color="#5053db" offset=".536"/><stop stop-color="#927cd7" offset="1"/></linearGradient><path d="M97.424 176.57l-2.675-.935c-.53-.186-1.07-.374-1.53-.696-.9-.637-1.395-1.757-1.395-2.873 0-.283.03-.567.095-.842.314-1.356 1.322-2.49 2.543-3.158.907-.496 1.923-.76 2.85-1.22s1.803-1.19 2.045-2.197c-.242 1.006-1.12 1.737-2.045 2.197s-1.942.725-2.85 1.22c-1.22.67-2.23 1.802-2.543 3.158-.064.274-.095.56-.095.842 0 1.116.485 2.236 1.395 2.873.46.322.998.51 1.53.696l2.675.935z" fill="url(#Fo)" class="W"/><linearGradient id="Fp" x1="91.317" x2="99.342" y1="169.651" y2="169.651" gradientUnits="userSpaceOnUse"><stop stop-color="#2e6fff" offset="0"/><stop stop-color="#2e6fff" offset=".046"/><stop stop-color="#336bf9" offset=".203"/><stop stop-color="#435ee9" offset=".406"/><stop stop-color="#5053db" offset=".536"/><stop stop-color="#927cd7" offset="1"/></linearGradient><path d="M97.163 175.6l-2.674-.934c-.53-.186-1.07-.375-1.53-.697-.9-.637-1.395-1.757-1.395-2.872a3.73 3.73 0 0 1 .095-.843c.314-1.356 1.322-2.49 2.543-3.157.907-.496 1.923-.76 2.85-1.22s1.804-1.19 2.045-2.197c-.24 1.006-1.12 1.737-2.045 2.197s-1.942.725-2.85 1.22c-1.22.668-2.23 1.8-2.543 3.157-.064.275-.095.56-.095.843 0 1.115.485 2.235 1.395 2.872.46.322 1 .512 1.53.697l2.674.934z" fill="url(#Fp)" class="W"/><defs><path id="Fq" d="M92.27 179.5l4.772 2.85-.015-1.87-4.77-2.85z"/></defs><clipPath id="Fr"><use xlink:href="#Fq"/></clipPath><linearGradient id="Fs" x1="92.262" x2="97.046" y1="180.009" y2="180.009" gradientUnits="userSpaceOnUse"><stop stop-color="#2e93ff" offset="0"/><stop stop-color="#2e93ff" offset=".046"/><stop stop-color="#3395f9" offset=".204"/><stop stop-color="#439ae9" offset=".41"/><stop stop-color="#509edb" offset=".541"/><stop stop-color="#509edb" offset="1"/></linearGradient><path clip-path="url(#Fr)" fill="url(#Fs)" d="M92.257 177.64h4.785v4.72h-4.785z"/><defs><path id="Ft" d="M97.027 180.5l.015 1.87 7.328-4.33-.01-1.87z"/></defs><clipPath id="Fu"><use xlink:href="#Ft"/></clipPath><linearGradient id="Fv" x1="97.026" x2="104.369" y1="179.26" y2="179.26" gradientUnits="userSpaceOnUse"><stop stop-color="#2e93ff" offset="0"/><stop stop-color="#2e93ff" offset=".046"/><stop stop-color="#3395f9" offset=".204"/><stop stop-color="#439ae9" offset=".41"/><stop stop-color="#509edb" offset=".541"/><stop stop-color="#509edb" offset="1"/></linearGradient><path clip-path="url(#Fu)" fill="url(#Fv)" d="M97.027 176.16h7.343v6.2h-7.343z"/><defs><path id="Fw" d="M97.797 180.84l.002.28.666-.4-.002-.28z"/></defs><clipPath id="Fx"><use xlink:href="#Fw"/></clipPath><linearGradient id="Fy" x1="97.796" x2="98.464" y1="180.783" y2="180.783" gradientUnits="userSpaceOnUse"><stop stop-color="#dcddff" offset="0"/><stop stop-color="#dbdcff" offset=".066"/><stop stop-color="#b6b9fe" offset="1"/></linearGradient><path clip-path="url(#Fx)" fill="url(#Fy)" d="M97.797 180.45h.668v.673h-.668z"/><defs><path id="Fz" d="M99.095 180.06l.002.28.665-.4-.001-.27z"/></defs><clipPath id="GA"><use xlink:href="#Fz"/></clipPath><linearGradient id="GB" x1="99.093" x2="99.76" y1="179.996" y2="179.996" gradientUnits="userSpaceOnUse"><stop stop-color="#dcddff" offset="0"/><stop stop-color="#dbdcff" offset=".066"/><stop stop-color="#b6b9fe" offset="1"/></linearGradient><path clip-path="url(#GA)" fill="url(#GB)" d="M99.095 179.67h.667v.672h-.667z"/><defs><path id="GC" d="M100.4 179.28v.28l.66-.4v-.28z"/></defs><clipPath id="GD"><use xlink:href="#GC"/></clipPath><linearGradient id="GE" x1="100.396" x2="101.064" y1="179.221" y2="179.221" gradientUnits="userSpaceOnUse"><stop stop-color="#dcddff" offset="0"/><stop stop-color="#dbdcff" offset=".066"/><stop stop-color="#b6b9fe" offset="1"/></linearGradient><path clip-path="url(#GD)" fill="url(#GE)" d="M100.4 178.88h.668v.672h-.668z"/><defs><path id="GF" d="M101.7 178.5v.28l.67-.4v-.28z"/></defs><clipPath id="GG"><use xlink:href="#GF"/></clipPath><linearGradient id="GH" x1="101.695" x2="102.363" y1="178.431" y2="178.431" gradientUnits="userSpaceOnUse"><stop stop-color="#dcddff" offset="0"/><stop stop-color="#dbdcff" offset=".066"/><stop stop-color="#b6b9fe" offset="1"/></linearGradient><path clip-path="url(#GG)" fill="url(#GH)" d="M101.7 178.1h.67v.672h-.67z"/><defs><path id="GI" d="M92.257 177.64l4.77 2.85 7.333-4.33-4.77-2.85z"/></defs><clipPath id="GJ"><use xlink:href="#GI"/></clipPath><linearGradient id="GK" x1="92.209" x2="104.312" y1="176.871" y2="176.871" gradientUnits="userSpaceOnUse"><stop stop-color="#2e6fff" offset="0"/><stop stop-color="#2e6fff" offset=".046"/><stop stop-color="#336bf9" offset=".203"/><stop stop-color="#435ee9" offset=".406"/><stop stop-color="#5053db" offset=".536"/><stop stop-color="#927cd7" offset="1"/></linearGradient><path clip-path="url(#GJ)" fill="url(#GK)" d="M92.257 173.3h12.102v7.186H92.257z"/><defs><path id="GL" d="M0 21.18h210v210H0z"/></defs><clipPath id="GM"><use xlink:href="#GL"/></clipPath><path clip-path="url(#GM)" d="M97.24 169.97l.006.82 3.715 2.14-.01-.82z" class="C"/><defs><path id="GN" d="M100.95 172.1l.01.82 12.1-7v-.82z"/></defs><clipPath id="GO"><use xlink:href="#GN"/></clipPath><linearGradient id="GP" x1="100.944" x2="113.054" y1="169.036" y2="169.036" gradientUnits="userSpaceOnUse"><stop stop-color="#dbdcff" offset="0"/><stop stop-color="#dbdcff" offset=".311"/><stop stop-color="#dbdcff" offset=".337"/><stop stop-color="#dcddff" offset="1"/></linearGradient><path clip-path="url(#GO)" fill="url(#GP)" d="M100.95 165.12h12.1v7.804h-12.1z"/><defs><path id="GQ" d="M97.24 169.97l3.7 2.14 12.1-7-3.72-2.14z"/></defs><clipPath id="GR"><use xlink:href="#GQ"/></clipPath><linearGradient id="GS" x1="97.178" x2="112.994" y1="167.584" y2="167.584" gradientUnits="userSpaceOnUse"><stop stop-color="#b6b9fe" offset="0"/><stop stop-color="#dcddff" offset=".765"/><stop stop-color="#dbdcff" offset="1"/></linearGradient><path clip-path="url(#GR)" fill="url(#GS)" d="M97.24 162.98h15.814v9.124H97.24z"/><defs><path id="GT" d="M0 21.18h210v210H0z"/></defs><clipPath id="GU"><use xlink:href="#GT"/></clipPath><path clip-path="url(#GU)" d="M107.12 161.18l.8.46-5.13 2.98-.04 3 4.48-4.48.8.46.04 2.55-5.4 3.14-.8-.46v-4.66z" class="C"/><defs><path id="GV" d="M102.68 164.35v4.93l5.4-3.14v-4.6z"/></defs><clipPath id="GW"><use xlink:href="#GV"/></clipPath><linearGradient id="GX" x1="108.085" x2="102.681" y1="165.419" y2="165.419" gradientUnits="userSpaceOnUse"><stop stop-color="#dbdcff" offset="0"/><stop stop-color="#dbdcff" offset=".311"/><stop stop-color="#dbdcff" offset=".337"/><stop stop-color="#dcddff" offset="1"/></linearGradient><path clip-path="url(#GW)" fill="url(#GX)" d="M102.68 161.54h5.404v7.743h-5.404z"/><defs><path id="GY" d="M0 21.18h210v210H0z"/></defs><clipPath id="GZ"><use xlink:href="#GY"/></clipPath><path clip-path="url(#GZ)" fill-rule="evenodd" d="M87.262 174.28l-1.214-.7-.285-.23-.21-.33-.136-.42-.047-.5.01-22.45.05-.57.132-.58.214-.57.284-.56.344-.52.39-.48.432-.4.466-.33 32.16-18.55.47-.2.43-.1.4.02.34.13 1.2.7-.34-.13-.4-.02-.43.1-.47.2-32.164 18.55-.464.33-.432.4-.394.47-.345.52-.28.56-.215.58-.135.58-.048.56-.01 22.45.05.5.136.42.21.33z" class="C"/><defs><path id="Ga" d="M120.9 129.73l-31.83 18.36a2.3 2.3 0 0 0-1.038 1.799l-.01 21.618c0 .662.467.932 1.04.6l31.832-18.362c.573-.33 1.037-1.134 1.037-1.797l.008-21.618c0-.47-.234-.74-.574-.74-.14-.001-.298.044-.464.14"/></defs><clipPath id="Gb"><use xlink:href="#Ga"/></clipPath><linearGradient id="Gc" x1="87.84" x2="121.756" y1="150.988" y2="150.988" gradientUnits="userSpaceOnUse"><stop stop-color="#2e6fff" offset="0"/><stop stop-color="#2e6fff" offset=".046"/><stop stop-color="#336bf9" offset=".203"/><stop stop-color="#435ee9" offset=".406"/><stop stop-color="#5053db" offset=".536"/><stop stop-color="#927cd7" offset="1"/></linearGradient><path clip-path="url(#Gb)" fill="url(#Gc)" d="M88.025 129.6h33.917v42.85H88.025z"/><defs><path id="Gd" d="M88.025 171.5l.01-21.618c0-.664.465-1.467 1.035-1.8l31.834-18.36c.57-.33 1.037-.06 1.035.6l-.006 21.618c0 .663-.464 1.468-1.037 1.797L89.064 172.1c-.167.096-.324.14-.464.14-.34-.001-.575-.27-.575-.74m33.047-43.736l-32.167 18.552c-1.27.735-2.312 2.537-2.313 4.006l-.01 22.452c0 1.47 1.04 2.07 2.313 1.334l32.167-18.554c1.27-.732 2.31-2.535 2.31-4l.01-22.45c0-1.045-.526-1.65-1.287-1.65-.31 0-.657.1-1.024.312"/></defs><clipPath id="Ge"><use xlink:href="#Gd"/></clipPath><linearGradient id="Gf" x1="86.72" x2="123.52" y1="150.924" y2="150.924" gradientUnits="userSpaceOnUse"><stop stop-color="#dcddff" offset="0"/><stop stop-color="#dbdcff" offset=".066"/><stop stop-color="#b6b9fe" offset="1"/></linearGradient><path clip-path="url(#Ge)" fill="url(#Gf)" d="M86.584 127.46h36.8v47.394h-36.8z"/><defs><path id="Gg" d="M149.1 107.35v9.286c0 .408.41.688.79.544l4.834-1.838c.66-.252.893-1.07.46-1.63l-5.138-6.682a.51.51 0 0 0-.412-.207c-.27 0-.533.205-.533.528"/></defs><clipPath id="Gh"><use xlink:href="#Gg"/></clipPath><linearGradient id="Gi" x1="149.103" x2="155.405" y1="110.607" y2="113.465" gradientUnits="userSpaceOnUse"><stop stop-color="#edeeff" offset="0"/><stop stop-color="#dbdcff" offset=".383"/><stop stop-color="#b6b9fe" offset="1"/></linearGradient><path clip-path="url(#Gh)" fill="url(#Gi)" d="M149.1 103.87l6.52 2.95v13.46l-6.52-2.96z"/></svg>