<svg xmlns="http://www.w3.org/2000/svg" width="210" height="210" viewBox="0 0 210 210"><style><![CDATA[.B{fill:#98ecfe}.C{opacity:.6}]]></style><linearGradient id="A" x1="5.001" x2="204.99" y1="157.79" y2="157.79" gradientUnits="userSpaceOnUse"><stop stop-color="#e6eefe" offset=".005"/><stop stop-color="#cec7fb" offset=".425"/><stop stop-color="#beadf9" offset=".786"/><stop stop-color="#b8a3f8" offset=".999"/></linearGradient><path d="M164.46 135.7l-47.886-27.646-1.218-.626-.876-.358-.428-.173-1.135-.363-.24-.075-1.335-.323-.103-.024-1.5-.26h-.003c-5.937-.86-12.948.256-18.1 3.236l-46.1 26.613H5v16.593h.034c-.184 2.498 1.2 4.906 4.28 6.68l84.115 48.566c4.714 2.72 12.025 3.176 18.5 1.52a.59.59 0 0 0 .081-.018 29.36 29.36 0 0 0 1.517-.438c.06-.02.122-.037.18-.055a26.71 26.71 0 0 0 1.377-.494c.084-.033.173-.062.258-.095a23.43 23.43 0 0 0 1.273-.558c.094-.043.19-.08.282-.124a20.75 20.75 0 0 0 1.465-.772L198.892 160c4.264-2.46 6.314-5.645 6.076-8.608V135.7H164.46z" fill="url(#A)"/><linearGradient id="B" x1="5" x2="205" y1="135.69" y2="135.69" gradientUnits="userSpaceOnUse"><stop stop-color="#f455af" offset="0"/><stop stop-color="#ffa100" offset="1"/></linearGradient><path d="M93.43 190.94L9.314 142.377c-6.39-3.7-5.588-10.136 1.79-14.397l80.532-46.494c7.38-4.26 18.544-4.723 24.937-1.032l84.114 48.562c6.39 3.688 5.586 10.134-1.796 14.4l-80.53 46.49c-7.378 4.262-18.542 4.725-24.932 1.034z" fill="url(#B)"/><radialGradient id="C" cx="-1278.9" cy="339.55" r="46.618" gradientTransform="matrix(.866 .5 -.866 .5 1466.3 611.07)" gradientUnits="userSpaceOnUse"><stop stop-color="#fff" offset="0"/><stop stop-color="#fff" stop-opacity=".885" offset=".095"/><stop stop-color="#fff" stop-opacity="0" offset=".823"/></radialGradient><path d="M105.08 164.7c-22.296 12.876-58.446 12.876-80.745 0-22.294-12.87-22.294-33.742 0-46.616s58.45-12.87 80.745 0 22.3 33.746 0 46.616z" fill="url(#C)" opacity=".9"/><radialGradient id="D" cx="-1230.1" cy="291.08" r="45.669" gradientTransform="matrix(.866 .5 -.866 .5 1466.3 611.07)" gradientUnits="userSpaceOnUse"><stop stop-color="#fff" offset="0"/><stop stop-color="#fff" stop-opacity=".885" offset=".095"/><stop stop-color="#fff" stop-opacity="0" offset=".823"/></radialGradient><path d="M188.5 164.4c-21.843 12.614-57.256 12.614-79.1 0-21.842-12.607-21.842-33.055 0-45.667s57.258-12.607 79.1 0c21.845 12.613 21.845 33.06 0 45.667z" fill="url(#D)" opacity=".9"/><g class="B"><path d="M146.68 129.05l-15.5-8.96V138l15.5 8.96L162.2 138v-17.9z"/><path d="M146.68 146.96l-15.5-8.96v-17.9l15.5 8.96z"/></g><linearGradient id="E" x1="146.68" x2="162.2" y1="133.53" y2="133.53" gradientUnits="userSpaceOnUse"><stop stop-color="#6e31fb" offset="0"/><stop stop-color="#6841f7" offset=".246"/><stop stop-color="#576bed" offset=".726"/><stop stop-color="#4d86e7" offset="1"/></linearGradient><path fill="url(#E)" d="M162.2 138l-15.52 8.96v-17.9l15.52-8.96z" class="C"/><linearGradient id="F" x1="131.17" x2="162.2" y1="120.09" y2="120.09" gradientUnits="userSpaceOnUse"><stop stop-color="#f1faff" offset="0"/><stop stop-color="#b0c9ff" offset="1"/></linearGradient><path fill="url(#F)" d="M146.68 129.05l-15.5-8.96 15.5-8.96 15.52 8.96z"/><g class="B"><path d="M126.53 141.32L111 132.36v17.92l15.52 8.96 15.5-8.96v-17.92z"/><path d="M126.53 159.24L111 150.28v-17.92l15.52 8.96z"/></g><linearGradient id="G" x1="126.53" x2="142.04" y1="145.8" y2="145.8" gradientUnits="userSpaceOnUse"><stop stop-color="#6e31fb" offset="0"/><stop stop-color="#6841f7" offset=".246"/><stop stop-color="#576bed" offset=".726"/><stop stop-color="#4d86e7" offset="1"/></linearGradient><path fill="url(#G)" d="M142.04 150.28l-15.5 8.96v-17.92l15.5-8.96z" class="C"/><linearGradient id="H" x1="111.01" x2="142.04" y1="132.37" y2="132.37" gradientUnits="userSpaceOnUse"><stop stop-color="#f1faff" offset="0"/><stop stop-color="#b0c9ff" offset="1"/></linearGradient><path fill="url(#H)" d="M126.53 141.32L111 132.36l15.52-8.95 15.5 8.95z"/><g class="B"><path d="M66.063 130.6l-15.517-8.96v17.92l15.517 8.96 15.517-8.96v-17.92z"/><path d="M66.063 148.52l-15.517-8.96v-17.92l15.517 8.96z"/></g><linearGradient id="I" x1="66.064" x2="81.58" y1="135.08" y2="135.08" gradientUnits="userSpaceOnUse"><stop stop-color="#6e31fb" offset="0"/><stop stop-color="#6841f7" offset=".246"/><stop stop-color="#576bed" offset=".726"/><stop stop-color="#4d86e7" offset="1"/></linearGradient><path fill="url(#I)" d="M81.58 139.56l-15.517 8.96V130.6l15.517-8.96z" class="C"/><linearGradient id="J" x1="50.546" x2="81.578" y1="121.64" y2="121.64" gradientUnits="userSpaceOnUse"><stop stop-color="#f1faff" offset="0"/><stop stop-color="#b0c9ff" offset="1"/></linearGradient><path fill="url(#J)" d="M66.063 130.6l-15.517-8.96 15.517-8.96 15.515 8.96z"/><g class="B"><path d="M86.22 142.1l-15.517-8.96v17.92l15.517 8.96 15.51-8.96v-17.92z"/><path d="M86.22 160.02l-15.517-8.96v-17.92l15.517 8.96z"/></g><linearGradient id="K" x1="86.219" x2="101.73" y1="146.58" y2="146.58" gradientUnits="userSpaceOnUse"><stop stop-color="#6e31fb" offset="0"/><stop stop-color="#6841f7" offset=".246"/><stop stop-color="#576bed" offset=".726"/><stop stop-color="#4d86e7" offset="1"/></linearGradient><path fill="url(#K)" d="M101.73 151.06l-15.51 8.96V142.1l15.51-8.96z" class="C"/><linearGradient id="L" x1="70.702" x2="101.73" y1="133.14" y2="133.14" gradientUnits="userSpaceOnUse"><stop stop-color="#f1faff" offset="0"/><stop stop-color="#b0c9ff" offset="1"/></linearGradient><path fill="url(#L)" d="M86.22 142.1l-15.517-8.96 15.515-8.96 15.513 8.96z"/><g class="B"><path d="M106.37 153.6l-15.513-8.96v17.92l15.513 8.96 15.52-8.96v-17.92z"/><path d="M106.37 171.52l-15.513-8.96v-17.92l15.513 8.96z"/></g><linearGradient id="M" x1="106.37" x2="121.89" y1="158.08" y2="158.08" gradientUnits="userSpaceOnUse"><stop stop-color="#6e31fb" offset="0"/><stop stop-color="#6841f7" offset=".246"/><stop stop-color="#576bed" offset=".726"/><stop stop-color="#4d86e7" offset="1"/></linearGradient><path fill="url(#M)" d="M121.9 162.56l-15.52 8.96V153.6l15.52-8.96z" class="C"/><linearGradient id="N" x1="90.857" x2="121.89" y1="144.64" y2="144.64" gradientUnits="userSpaceOnUse"><stop stop-color="#f1faff" offset="0"/><stop stop-color="#b0c9ff" offset="1"/></linearGradient><path fill="url(#N)" d="M106.37 153.6l-15.513-8.96 15.513-8.96 15.52 8.96z"/><g class="B"><path d="M146.68 105.27l-15.5-8.96v17.92l15.5 8.96 15.52-8.96V96.31z"/><path d="M146.68 123.2l-15.5-8.96V96.31l15.5 8.96z"/></g><linearGradient id="O" x1="146.68" x2="162.2" y1="109.75" y2="109.75" gradientUnits="userSpaceOnUse"><stop stop-color="#6e31fb" offset="0"/><stop stop-color="#6841f7" offset=".246"/><stop stop-color="#576bed" offset=".726"/><stop stop-color="#4d86e7" offset="1"/></linearGradient><path fill="url(#O)" d="M162.2 114.23l-15.52 8.96v-17.92l15.52-8.96z" class="C"/><linearGradient id="P" x1="131.17" x2="162.2" y1="96.31" y2="96.31" gradientUnits="userSpaceOnUse"><stop stop-color="#f1faff" offset="0"/><stop stop-color="#b0c9ff" offset="1"/></linearGradient><path fill="url(#P)" d="M146.68 105.27l-15.5-8.96 15.5-8.958 15.52 8.958z"/><g class="B"><path d="M86.22 94.547l-15.52-8.96V103.5l15.52 8.96 15.5-8.96V85.587z"/><path d="M86.22 112.46l-15.518-8.96V85.587l15.518 8.96z"/></g><linearGradient id="Q" x1="86.22" x2="101.73" y1="99.025" y2="99.025" gradientUnits="userSpaceOnUse"><stop stop-color="#6e31fb" offset="0"/><stop stop-color="#6841f7" offset=".246"/><stop stop-color="#576bed" offset=".726"/><stop stop-color="#4d86e7" offset="1"/></linearGradient><path fill="url(#Q)" d="M101.73 103.5l-15.5 8.96V94.547l15.5-8.96z" class="C"/><linearGradient id="R" x1="70.702" x2="101.73" y1="85.588" y2="85.588" gradientUnits="userSpaceOnUse"><stop stop-color="#f1faff" offset="0"/><stop stop-color="#b0c9ff" offset="1"/></linearGradient><path fill="url(#R)" d="M86.22 94.547l-15.518-8.96 15.515-8.957 15.513 8.958z"/><g class="B"><path d="M126.53 117.55L111 108.6v17.9l15.52 8.96 15.5-8.96v-17.9z"/><path d="M126.53 135.46L111 126.5v-17.9l15.52 8.96z"/></g><linearGradient id="S" x1="126.53" x2="142.04" y1="122.03" y2="122.03" gradientUnits="userSpaceOnUse"><stop stop-color="#6e31fb" offset="0"/><stop stop-color="#6841f7" offset=".246"/><stop stop-color="#576bed" offset=".726"/><stop stop-color="#4d86e7" offset="1"/></linearGradient><path fill="url(#S)" d="M142.04 126.5l-15.5 8.96v-17.9l15.5-8.96z" class="C"/><linearGradient id="T" x1="111.01" x2="142.04" y1="108.59" y2="108.59" gradientUnits="userSpaceOnUse"><stop stop-color="#f1faff" offset="0"/><stop stop-color="#b0c9ff" offset="1"/></linearGradient><path fill="url(#T)" d="M126.53 117.55L111 108.6l15.52-8.96 15.5 8.96z"/><g class="B"><path d="M66.064 106.82l-15.518-8.955v17.915l15.518 8.96 15.516-8.96V97.865z"/><path d="M66.064 124.74l-15.518-8.96V97.865l15.518 8.955z"/></g><linearGradient id="U" x1="66.064" x2="81.58" y1="111.3" y2="111.3" gradientUnits="userSpaceOnUse"><stop stop-color="#6e31fb" offset="0"/><stop stop-color="#6841f7" offset=".246"/><stop stop-color="#576bed" offset=".726"/><stop stop-color="#4d86e7" offset="1"/></linearGradient><path fill="url(#U)" d="M81.58 115.78l-15.516 8.96v-17.92l15.516-8.955z" class="C"/><linearGradient id="V" x1="50.546" x2="81.579" y1="97.865" y2="97.865" gradientUnits="userSpaceOnUse"><stop stop-color="#f1faff" offset="0"/><stop stop-color="#b0c9ff" offset="1"/></linearGradient><path fill="url(#V)" d="M66.064 106.82l-15.518-8.955 15.517-8.96 15.516 8.96z"/><g class="B"><path d="M86.22 118.32l-15.518-8.95v17.9l15.518 8.96 15.5-8.96v-17.9z"/><path d="M86.22 136.24l-15.518-8.96v-17.9l15.518 8.95z"/></g><linearGradient id="W" x1="86.22" x2="101.73" y1="122.8" y2="122.8" gradientUnits="userSpaceOnUse"><stop stop-color="#6e31fb" offset="0"/><stop stop-color="#6841f7" offset=".246"/><stop stop-color="#576bed" offset=".726"/><stop stop-color="#4d86e7" offset="1"/></linearGradient><path fill="url(#W)" d="M101.73 127.28l-15.5 8.96v-17.92l15.5-8.95z" class="C"/><linearGradient id="X" x1="70.702" x2="101.73" y1="109.37" y2="109.37" gradientUnits="userSpaceOnUse"><stop stop-color="#f1faff" offset="0"/><stop stop-color="#b0c9ff" offset="1"/></linearGradient><path fill="url(#X)" d="M86.22 118.32l-15.518-8.95 15.515-8.96 15.513 8.96z"/><g class="B"><path d="M106.37 129.82l-15.513-8.96v17.92l15.513 8.96 15.52-8.96v-17.92z"/><path d="M106.37 147.74l-15.513-8.96v-17.92l15.513 8.96z"/></g><linearGradient id="Y" x1="106.37" x2="121.89" y1="134.3" y2="134.3" gradientUnits="userSpaceOnUse"><stop stop-color="#6e31fb" offset="0"/><stop stop-color="#6841f7" offset=".246"/><stop stop-color="#576bed" offset=".726"/><stop stop-color="#4d86e7" offset="1"/></linearGradient><path fill="url(#Y)" d="M121.9 138.78l-15.52 8.96v-17.92l15.52-8.96z" class="C"/><linearGradient id="Z" x1="90.857" x2="121.89" y1="120.87" y2="120.87" gradientUnits="userSpaceOnUse"><stop stop-color="#f1faff" offset="0"/><stop stop-color="#b0c9ff" offset="1"/></linearGradient><path fill="url(#Z)" d="M106.37 129.82l-15.513-8.96 15.513-8.95 15.52 8.95z"/><g class="B"><path d="M106.37 58.493l-15.512-8.96V67.45l15.512 8.96 15.52-8.96V49.534z"/><path d="M106.37 76.408l-15.512-8.96V49.534l15.512 8.958z"/></g><linearGradient id="a" x1="106.37" x2="121.89" y1="62.971" y2="62.971" gradientUnits="userSpaceOnUse"><stop stop-color="#6e31fb" offset="0"/><stop stop-color="#6841f7" offset=".246"/><stop stop-color="#576bed" offset=".726"/><stop stop-color="#4d86e7" offset="1"/></linearGradient><path fill="url(#a)" d="M121.9 67.45l-15.52 8.96V58.492l15.52-8.958z" class="C"/><linearGradient id="b" x1="90.858" x2="121.89" y1="49.534" y2="49.534" gradientUnits="userSpaceOnUse"><stop stop-color="#f1faff" offset="0"/><stop stop-color="#b0c9ff" offset="1"/></linearGradient><path fill="url(#b)" d="M106.37 58.492l-15.512-8.958 15.512-8.958 15.52 8.958z"/><g class="B"><path d="M126.53 69.992L111 61.034V78.95l15.52 8.958 15.5-8.958V61.034z"/><path d="M126.53 87.91L111 78.95V61.034l15.52 8.958z"/></g><linearGradient id="c" x1="126.53" x2="142.04" y1="74.471" y2="74.471" gradientUnits="userSpaceOnUse"><stop stop-color="#6e31fb" offset="0"/><stop stop-color="#6841f7" offset=".246"/><stop stop-color="#576bed" offset=".726"/><stop stop-color="#4d86e7" offset="1"/></linearGradient><path fill="url(#c)" d="M142.04 78.95l-15.5 8.958V69.992l15.5-8.958z" class="C"/><linearGradient id="d" x1="111.01" x2="142.04" y1="61.034" y2="61.034" gradientUnits="userSpaceOnUse"><stop stop-color="#f1faff" offset="0"/><stop stop-color="#b0c9ff" offset="1"/></linearGradient><path fill="url(#d)" d="M126.53 69.992L111 61.034l15.52-8.958 15.5 8.958z"/><g class="B"><path d="M146.68 81.492l-15.5-8.958V90.45l15.5 8.958 15.52-8.958V72.534z"/><path d="M146.68 99.41l-15.5-8.958V72.534l15.5 8.958z"/></g><linearGradient id="e" x1="146.68" x2="162.2" y1="85.972" y2="85.972" gradientUnits="userSpaceOnUse"><stop stop-color="#6e31fb" offset="0"/><stop stop-color="#6841f7" offset=".246"/><stop stop-color="#576bed" offset=".726"/><stop stop-color="#4d86e7" offset="1"/></linearGradient><path fill="url(#e)" d="M162.2 90.45l-15.52 8.958V81.492l15.52-8.958z" class="C"/><linearGradient id="f" x1="131.17" x2="162.2" y1="72.534" y2="72.534" gradientUnits="userSpaceOnUse"><stop stop-color="#f1faff" offset="0"/><stop stop-color="#b0c9ff" offset="1"/></linearGradient><path fill="url(#f)" d="M146.68 81.492l-15.5-8.958 15.5-8.958 15.52 8.958z"/><g class="B"><path d="M86.22 70.77l-15.518-8.96v17.917l15.518 8.958 15.52-8.958V61.81z"/><path d="M86.22 88.686l-15.517-8.958V61.81l15.517 8.96z"/></g><linearGradient id="g" x1="86.22" x2="101.73" y1="75.248" y2="75.248" gradientUnits="userSpaceOnUse"><stop stop-color="#6e31fb" offset="0"/><stop stop-color="#6841f7" offset=".246"/><stop stop-color="#576bed" offset=".726"/><stop stop-color="#4d86e7" offset="1"/></linearGradient><path fill="url(#g)" d="M101.74 79.728l-15.52 8.958V70.77l15.52-8.96z" class="C"/><linearGradient id="h" x1="70.703" x2="101.73" y1="61.812" y2="61.812" gradientUnits="userSpaceOnUse"><stop stop-color="#f1faff" offset="0"/><stop stop-color="#b0c9ff" offset="1"/></linearGradient><path fill="url(#h)" d="M86.22 70.77l-15.517-8.96 15.515-8.958 15.522 8.958z"/><g class="B"><path d="M66.065 83.046L50.547 74.09v17.916l15.518 8.955 15.516-8.955V74.09z"/><path d="M66.065 100.96l-15.518-8.955V74.09l15.518 8.957z"/></g><linearGradient id="i" x1="66.065" x2="81.581" y1="87.526" y2="87.526" gradientUnits="userSpaceOnUse"><stop stop-color="#6e31fb" offset="0"/><stop stop-color="#6841f7" offset=".246"/><stop stop-color="#576bed" offset=".726"/><stop stop-color="#4d86e7" offset="1"/></linearGradient><path fill="url(#i)" d="M81.58 92.005l-15.516 8.955V83.046L81.58 74.09z" class="C"/><linearGradient id="j" x1="50.547" x2="81.58" y1="74.088" y2="74.088" gradientUnits="userSpaceOnUse"><stop stop-color="#f1faff" offset="0"/><stop stop-color="#b0c9ff" offset="1"/></linearGradient><path fill="url(#j)" d="M66.065 83.046L50.547 74.09l15.517-8.96 15.516 8.96z"/><g class="B"><path d="M106.15 82.426l-15.516-8.96v17.917l15.516 8.956 15.52-8.956V73.467z"/><path d="M106.15 100.34l-15.515-8.956V73.467l15.515 8.96z"/></g><linearGradient id="k" x1="106.15" x2="121.67" y1="86.905" y2="86.905" gradientUnits="userSpaceOnUse"><stop stop-color="#6e31fb" offset="0"/><stop stop-color="#6841f7" offset=".246"/><stop stop-color="#576bed" offset=".726"/><stop stop-color="#4d86e7" offset="1"/></linearGradient><path fill="url(#k)" d="M121.67 91.384l-15.52 8.956V82.426l15.52-8.96z" class="C"/><linearGradient id="l" x1="90.635" x2="121.67" y1="73.467" y2="73.467" gradientUnits="userSpaceOnUse"><stop stop-color="#f1faff" offset="0"/><stop stop-color="#b0c9ff" offset="1"/></linearGradient><path fill="url(#l)" d="M106.15 82.426l-15.515-8.96 15.515-8.96 15.52 8.96z"/><path d="M86.458 78.836L70.94 69.878v17.917l15.518 8.958 15.512-8.958V69.878z" class="B"/><path fill="#f1aaa9" d="M86.458 96.753L70.94 87.795V69.878l15.518 8.958z"/><linearGradient id="m" x1="86.458" x2="101.97" y1="83.315" y2="83.315" gradientUnits="userSpaceOnUse"><stop stop-color="#ff8caf" offset="0"/><stop stop-color="#ffa100" offset="1"/></linearGradient><path fill="url(#m)" d="M101.97 87.795l-15.512 8.958V78.836l15.512-8.958z"/><path fill="#f6c9c9" d="M86.458 78.836L70.94 69.878l15.517-8.958 15.513 8.958z"/><g class="B"><path d="M126.62 94.844l-15.52-8.96V103.8l15.52 8.96 15.5-8.96V85.884z"/><path d="M126.62 112.76l-15.52-8.96V85.884l15.52 8.96z"/></g><linearGradient id="n" x1="126.62" x2="142.13" y1="99.322" y2="99.322" gradientUnits="userSpaceOnUse"><stop stop-color="#6e31fb" offset="0"/><stop stop-color="#6841f7" offset=".246"/><stop stop-color="#576bed" offset=".726"/><stop stop-color="#4d86e7" offset="1"/></linearGradient><path fill="url(#n)" d="M142.13 103.8l-15.5 8.96V94.844l15.5-8.96z" class="C"/><linearGradient id="o" x1="111.1" x2="142.13" y1="85.885" y2="85.885" gradientUnits="userSpaceOnUse"><stop stop-color="#f1faff" offset="0"/><stop stop-color="#b0c9ff" offset="1"/></linearGradient><path fill="url(#o)" d="M126.62 94.844l-15.52-8.96 15.52-8.958 15.5 8.958z"/><g class="B"><path d="M106.46 107.12l-15.513-8.957v17.917l15.513 8.96 15.52-8.96V98.163z"/><path d="M106.46 125.04l-15.513-8.96V98.163l15.513 8.957z"/></g><linearGradient id="p" x1="106.46" x2="121.98" y1="111.6" y2="111.6" gradientUnits="userSpaceOnUse"><stop stop-color="#6e31fb" offset="0"/><stop stop-color="#6841f7" offset=".246"/><stop stop-color="#576bed" offset=".726"/><stop stop-color="#4d86e7" offset="1"/></linearGradient><path fill="url(#p)" d="M121.98 116.08l-15.52 8.96v-17.92l15.52-8.957z" class="C"/><linearGradient id="q" x1="90.947" x2="121.98" y1="98.163" y2="98.163" gradientUnits="userSpaceOnUse"><stop stop-color="#f1faff" offset="0"/><stop stop-color="#b0c9ff" offset="1"/></linearGradient><path fill="url(#q)" d="M106.46 107.12l-15.513-8.957 15.513-8.96 15.52 8.96z"/></svg>