<svg xmlns="http://www.w3.org/2000/svg" viewBox="0 0 46 46"><defs><style>.cls-1,.cls-2{fill:#fff;}.cls-2{opacity:0.4;}</style></defs><path class="cls-1" d="M0,0V46H46V0ZM39.25,10.17,23,19.3h0l-9.86-5.54v3.41L23,22.9,34.4,16.26v7.35L23,31.06,13.14,24.6v3.64L23,34.68,39.25,24.07v7L23,42.82,6.75,31.06V3.19L23,11.13l16.26-8Z"/><polygon class="cls-2" points="39.25 31.07 39.25 24.07 22.99 34.68 23 42.82 39.25 31.07"/><polygon class="cls-2" points="34.4 23.61 34.4 16.26 22.99 22.9 23 31.06 34.4 23.61"/><polygon class="cls-2" points="22.99 11.13 23 19.29 23.01 19.3 39.25 10.17 39.25 3.18 22.99 11.13"/></svg>