<?xml version="1.0" encoding="utf-8"?>
<!-- Generator: Adobe Illustrator 16.0.3, SVG Export Plug-In . SVG Version: 6.00 Build 0)  -->
<!DOCTYPE svg PUBLIC "-//W3C//DTD SVG 1.1//EN" "http://www.w3.org/Graphics/SVG/1.1/DTD/svg11.dtd">
<svg version="1.1" id="Layer_1" xmlns="http://www.w3.org/2000/svg" xmlns:xlink="http://www.w3.org/1999/xlink" x="0px" y="0px"
	 width="150.406px" height="41.556px" viewBox="0 0 150.406 41.556" enable-background="new 0 0 150.406 41.556"
	 xml:space="preserve">
<g>
	<path fill="#C30036" d="M76.938,15.687c0,4.792,3.295,7.188,8.09,7.188c5.393,0,8.091-2.096,8.091-5.691v-0.001
		c0-4.128-2.698-4.994-8.091-6.527c-3.723-0.98-5.875-1.952-5.875-4.304l0,0c0-2.748,2.06-4.022,5.848-4.022h-0.003
		c3.556,0,5.903,1.242,5.903,4.971h1.619c0-4.791-2.998-6.589-7.492-6.589c-4.795,0-7.491,1.798-7.491,5.391
		c0,3.498,2.696,4.853,7.489,6.219c3.978,1.099,6.475,1.589,6.475,4.862c0,2.738-2.367,4.074-6.491,4.074h-0.006
		c-3.694,0-6.448-1.658-6.448-5.57L76.938,15.687z"/>
	<path fill="#C30036" d="M64.65,0.713c-6.123,0-11.086,4.961-11.086,11.081s4.963,11.081,11.086,11.081
		c6.125,0,11.088-4.961,11.088-11.081S70.775,0.713,64.65,0.713 M64.652,21.259c-5.23,0-9.47-4.237-9.47-9.464
		c0-5.228,4.239-9.466,9.47-9.466c5.229,0,9.467,4.238,9.467,9.466C74.119,17.022,69.881,21.259,64.652,21.259"/>
	<path fill="#FFFFFF" d="M45.174,6.703c-2.264,0-3.921,0.858-4.975,2.434V1.012h-1.617v13.777h0.001h-0.001h1.617
		c0-4.073,1.809-6.471,4.975-6.471s4.975,2.398,4.975,6.471c0,4.074-1.809,6.471-4.975,6.471c-2.385,0-4-1.362-4.65-3.776h-1.68
		c0.727,3.437,2.941,5.391,6.33,5.391c4.195,0,6.592-2.994,6.592-8.086C51.766,9.698,49.369,6.703,45.174,6.703"/>
	<path fill="#FFFFFF" d="M29.592,21.243c-3.166,0-4.975-2.39-4.975-6.454h11.566c0-5.092-2.396-8.086-6.592-8.086
		c-4.194,0-6.59,2.994-6.59,8.086c0,5.092,2.396,8.086,6.59,8.086c3.39,0,5.604-1.955,6.33-5.391h-1.681
		C33.59,19.887,31.975,21.243,29.592,21.243 M29.592,8.334c2.72,0,4.437,1.765,4.867,4.837h-9.732
		C25.156,10.099,26.873,8.334,29.592,8.334"/>
	<polygon fill="#FFFFFF" points="7.433,22.576 11.552,9.516 15.67,22.576 17.489,22.576 22.4,7.001 20.705,7.001 16.579,20.081 
		12.455,7.001 10.646,7.001 6.522,20.081 2.399,7.001 0.703,7.001 5.613,22.576 	"/>
</g>
<g>
	<path fill="#FFFFFF" d="M54.064,34.426c0-1.346,0.275-2.34,0.828-2.984c0.551-0.645,1.407-0.967,2.568-0.967
		c0.583,0,1.074,0.091,1.473,0.272s0.721,0.447,0.967,0.796s0.422,0.772,0.529,1.271c0.105,0.498,0.16,1.061,0.16,1.688
		c0,1.353-0.276,2.351-0.828,2.995s-1.412,0.967-2.579,0.967c-0.584,0-1.075-0.093-1.474-0.278c-0.398-0.185-0.719-0.45-0.961-0.795
		c-0.242-0.346-0.416-0.768-0.523-1.266S54.064,35.06,54.064,34.426z M59.649,34.341c0-0.426-0.032-0.828-0.097-1.208
		c-0.063-0.38-0.178-0.713-0.342-1.001c-0.163-0.287-0.386-0.514-0.666-0.681c-0.282-0.167-0.637-0.251-1.063-0.251
		c-0.47,0-0.863,0.073-1.18,0.219c-0.317,0.146-0.573,0.358-0.769,0.639c-0.196,0.28-0.335,0.63-0.417,1.049
		c-0.082,0.418-0.122,0.897-0.122,1.437c0,0.447,0.031,0.862,0.096,1.245c0.064,0.384,0.178,0.715,0.342,0.995
		s0.385,0.502,0.662,0.666c0.277,0.163,0.626,0.244,1.047,0.244c0.483,0,0.886-0.07,1.206-0.213c0.32-0.142,0.577-0.354,0.769-0.639
		c0.192-0.283,0.33-0.633,0.412-1.048C59.608,35.379,59.649,34.895,59.649,34.341z"/>
	<path fill="#FFFFFF" d="M62.5,32.953l0.097,0.385c0.22-0.136,0.452-0.253,0.694-0.353c0.284-0.107,0.608-0.16,0.971-0.16
		c0.77,0,1.33,0.234,1.683,0.705c0.353,0.47,0.528,1.146,0.528,2.028c0,0.428-0.048,0.819-0.145,1.175
		c-0.096,0.356-0.247,0.662-0.453,0.918c-0.207,0.257-0.472,0.456-0.796,0.599c-0.323,0.143-0.718,0.214-1.18,0.214
		c-0.3,0-0.545-0.036-0.737-0.107c-0.148-0.028-0.299-0.082-0.448-0.16v2.499l-0.897,0.139V34.32l-0.085-1.367H62.5z M63.814,37.769
		c0.555,0,0.982-0.169,1.281-0.508c0.299-0.338,0.448-0.905,0.448-1.703c0-0.271-0.023-0.528-0.069-0.774
		c-0.047-0.245-0.129-0.461-0.246-0.646c-0.117-0.186-0.273-0.333-0.47-0.443s-0.446-0.165-0.753-0.165
		c-0.32,0-0.602,0.067-0.844,0.202c-0.17,0.093-0.32,0.192-0.448,0.299v3.407C63.041,37.659,63.408,37.769,63.814,37.769z"/>
	<path fill="#FFFFFF" d="M69.869,38.463c-0.463,0-0.854-0.06-1.17-0.177s-0.572-0.294-0.769-0.528
		c-0.196-0.235-0.337-0.53-0.422-0.887c-0.085-0.355-0.128-0.775-0.128-1.26c0-0.954,0.201-1.657,0.604-2.109
		s1.023-0.678,1.863-0.678c0.448,0,0.813,0.065,1.094,0.197s0.502,0.313,0.662,0.545s0.27,0.507,0.326,0.827s0.086,0.67,0.086,1.047
		v0.427h-3.717c0,0.307,0.021,0.566,0.064,0.78c0.106,0.412,0.293,0.701,0.561,0.864c0.267,0.164,0.625,0.246,1.073,0.246
		c0.384,0,0.722-0.048,1.015-0.145c0.291-0.096,0.523-0.193,0.693-0.294l0.235,0.62c-0.093,0.057-0.214,0.115-0.363,0.176
		s-0.318,0.117-0.507,0.171c-0.189,0.054-0.387,0.097-0.593,0.128C70.271,38.447,70.068,38.463,69.869,38.463z M71.097,35.206
		c0-0.641-0.112-1.085-0.337-1.335c-0.224-0.249-0.527-0.373-0.912-0.373c-0.449,0-0.789,0.098-1.02,0.293
		c-0.232,0.196-0.391,0.497-0.476,0.902c-0.015,0.079-0.025,0.16-0.032,0.246c-0.008,0.085-0.014,0.175-0.021,0.267H71.097z"/>
	<path fill="#FFFFFF" d="M73.948,32.953l0.032,0.48c0.234-0.163,0.477-0.292,0.727-0.385c0.405-0.149,0.797-0.224,1.174-0.224
		c0.363,0,0.658,0.044,0.887,0.134c0.228,0.089,0.407,0.219,0.539,0.39s0.223,0.384,0.272,0.641c0.05,0.256,0.075,0.552,0.075,0.886
		v3.46h-0.887v-3.268c0-0.228-0.013-0.434-0.037-0.619c-0.025-0.186-0.077-0.346-0.155-0.48c-0.079-0.136-0.19-0.238-0.337-0.31
		c-0.146-0.071-0.34-0.107-0.582-0.107c-0.199,0-0.395,0.029-0.587,0.086s-0.381,0.132-0.565,0.225
		c-0.078,0.035-0.152,0.072-0.219,0.111c-0.068,0.039-0.131,0.084-0.188,0.134v4.229h-0.896v-3.951l-0.086-1.431H73.948z"/>
	<path fill="#FFFFFF" d="M85.343,35.324c-0.157-0.071-0.335-0.148-0.534-0.229c-0.199-0.082-0.406-0.166-0.619-0.251
		c-0.213-0.086-0.426-0.171-0.635-0.257c-0.211-0.085-0.4-0.171-0.572-0.256c-0.186-0.1-0.349-0.205-0.49-0.315
		c-0.143-0.11-0.262-0.236-0.358-0.379s-0.171-0.306-0.224-0.491c-0.055-0.186-0.08-0.402-0.08-0.651
		c0-0.349,0.07-0.649,0.213-0.902s0.338-0.461,0.588-0.625c0.248-0.164,0.539-0.287,0.869-0.368
		c0.332-0.082,0.689-0.123,1.074-0.123c0.854,0,1.605,0.157,2.254,0.47l-0.32,0.705c-0.222-0.1-0.496-0.197-0.823-0.294
		c-0.327-0.096-0.694-0.144-1.101-0.144c-0.576,0-1.026,0.106-1.35,0.32c-0.324,0.213-0.486,0.513-0.486,0.896
		c0,0.257,0.061,0.476,0.182,0.657s0.316,0.344,0.587,0.485c0.149,0.079,0.32,0.155,0.513,0.229
		c0.192,0.075,0.392,0.149,0.598,0.225c0.207,0.075,0.412,0.155,0.614,0.24c0.203,0.086,0.39,0.178,0.561,0.277
		c0.171,0.093,0.327,0.192,0.47,0.3c0.143,0.106,0.266,0.229,0.369,0.368s0.186,0.303,0.246,0.491s0.09,0.411,0.09,0.667
		c0,0.356-0.068,0.664-0.207,0.924c-0.14,0.26-0.334,0.478-0.583,0.651c-0.249,0.175-0.543,0.305-0.881,0.39
		c-0.339,0.086-0.704,0.129-1.095,0.129c-0.435,0-0.865-0.045-1.292-0.134s-0.812-0.219-1.153-0.39l0.342-0.737
		c0.349,0.164,0.686,0.287,1.009,0.368c0.323,0.082,0.679,0.123,1.063,0.123c0.647,0,1.127-0.111,1.437-0.335
		c0.31-0.223,0.465-0.525,0.465-0.908C86.08,35.955,85.834,35.579,85.343,35.324z"/>
	<path fill="#FFFFFF" d="M90.266,38.463c-0.462,0-0.845-0.064-1.147-0.192c-0.302-0.129-0.546-0.315-0.731-0.561
		c-0.186-0.246-0.314-0.543-0.39-0.892c-0.075-0.35-0.112-0.748-0.112-1.196c0-0.954,0.21-1.659,0.631-2.114
		c0.42-0.456,1.085-0.684,1.996-0.684c0.455,0,0.838,0.063,1.148,0.192c0.31,0.128,0.557,0.314,0.742,0.561
		c0.185,0.245,0.316,0.544,0.395,0.896s0.117,0.753,0.117,1.201c0,0.954-0.213,1.657-0.641,2.109
		C91.847,38.237,91.178,38.463,90.266,38.463z M90.266,37.769c0.328,0,0.604-0.047,0.828-0.139c0.225-0.093,0.402-0.229,0.534-0.411
		s0.226-0.41,0.282-0.684c0.058-0.274,0.086-0.593,0.086-0.956c0-0.284-0.021-0.554-0.064-0.807
		c-0.042-0.252-0.119-0.473-0.229-0.662c-0.111-0.188-0.262-0.338-0.454-0.448s-0.438-0.165-0.737-0.165
		c-0.327,0-0.602,0.048-0.822,0.144c-0.221,0.097-0.396,0.239-0.528,0.428s-0.226,0.42-0.283,0.694
		c-0.058,0.273-0.085,0.592-0.085,0.955c0,0.292,0.021,0.563,0.064,0.812c0.042,0.25,0.117,0.467,0.224,0.651
		c0.106,0.186,0.257,0.33,0.448,0.433C89.722,37.717,89.967,37.769,90.266,37.769z"/>
	<path fill="#FFFFFF" d="M98.489,36.904l0.085,1.431h-0.832l-0.054-0.47c-0.214,0.143-0.448,0.264-0.705,0.363
		c-0.384,0.156-0.776,0.235-1.175,0.235c-0.363,0-0.658-0.045-0.887-0.134c-0.228-0.089-0.405-0.219-0.533-0.39
		c-0.129-0.171-0.215-0.385-0.262-0.641c-0.047-0.257-0.069-0.552-0.069-0.887v-3.46h0.876v3.268c0,0.229,0.012,0.437,0.037,0.625
		s0.078,0.349,0.16,0.48s0.193,0.233,0.336,0.305s0.332,0.106,0.566,0.106c0.199,0,0.395-0.026,0.588-0.08
		c0.191-0.054,0.373-0.126,0.544-0.219c0.136-0.071,0.281-0.153,0.438-0.246v-4.239h0.886V36.904z"/>
	<path fill="#FFFFFF" d="M100.668,32.953l0.096,0.737c0.214-0.257,0.455-0.452,0.727-0.588c0.355-0.185,0.715-0.277,1.078-0.277
		c0.299,0,0.541,0.046,0.727,0.137l-0.246,0.749c-0.191-0.078-0.402-0.117-0.63-0.117c-0.32,0-0.63,0.097-0.929,0.289
		c-0.1,0.071-0.201,0.153-0.305,0.246s-0.205,0.196-0.305,0.311v3.896h-0.896v-3.908l-0.129-1.474H100.668z"/>
	<path fill="#FFFFFF" d="M107.961,38.025c-0.171,0.107-0.416,0.207-0.736,0.299c-0.32,0.093-0.666,0.14-1.036,0.14
		c-0.89,0-1.53-0.237-1.923-0.711c-0.391-0.473-0.587-1.147-0.587-2.023c0-0.961,0.229-1.686,0.688-2.173s1.135-0.731,2.023-0.731
		c0.342,0,0.661,0.057,0.957,0.171c0.295,0.113,0.527,0.267,0.699,0.459l-0.534,0.534c-0.136-0.149-0.3-0.268-0.491-0.353
		c-0.192-0.086-0.406-0.128-0.641-0.128c-0.598,0-1.047,0.182-1.346,0.544c-0.299,0.363-0.449,0.933-0.449,1.709
		c0,0.299,0.031,0.571,0.092,0.817c0.061,0.245,0.158,0.457,0.293,0.635c0.136,0.178,0.311,0.315,0.523,0.411
		c0.214,0.097,0.474,0.145,0.779,0.145c0.32,0,0.599-0.032,0.834-0.097c0.234-0.063,0.455-0.146,0.662-0.245L107.961,38.025z"/>
	<path fill="#FFFFFF" d="M111.218,38.463c-0.463,0-0.853-0.06-1.169-0.177c-0.317-0.117-0.573-0.294-0.77-0.528
		c-0.195-0.235-0.336-0.53-0.422-0.887c-0.085-0.355-0.128-0.775-0.128-1.26c0-0.954,0.201-1.657,0.604-2.109
		s1.023-0.678,1.863-0.678c0.448,0,0.813,0.065,1.095,0.197s0.502,0.313,0.662,0.545s0.269,0.507,0.326,0.827
		c0.057,0.32,0.085,0.67,0.085,1.047v0.427h-3.716c0,0.307,0.021,0.566,0.063,0.78c0.106,0.412,0.294,0.701,0.562,0.864
		c0.266,0.164,0.624,0.246,1.072,0.246c0.385,0,0.723-0.048,1.015-0.145c0.292-0.096,0.523-0.193,0.694-0.294l0.234,0.62
		c-0.092,0.057-0.213,0.115-0.362,0.176s-0.319,0.117-0.508,0.171s-0.386,0.097-0.593,0.128
		C111.62,38.447,111.417,38.463,111.218,38.463z M112.446,35.206c0-0.641-0.112-1.085-0.337-1.335
		c-0.224-0.249-0.528-0.373-0.913-0.373c-0.448,0-0.788,0.098-1.02,0.293c-0.231,0.196-0.39,0.497-0.476,0.902
		c-0.014,0.079-0.025,0.16-0.031,0.246c-0.008,0.085-0.015,0.175-0.021,0.267H112.446z"/>
	<path fill="#FFFFFF" d="M122.398,37.566v0.769h-4.741v-7.742h4.613v0.768h-3.717v2.606h3.578v0.769h-3.578v2.83H122.398z"/>
	<path fill="#FFFFFF" d="M125.666,38.463c-0.762,0-1.321-0.24-1.677-0.722c-0.356-0.48-0.534-1.151-0.534-2.013
		c0-0.427,0.048-0.818,0.145-1.175c0.096-0.355,0.247-0.662,0.454-0.918c0.206-0.257,0.471-0.456,0.795-0.598
		c0.324-0.143,0.718-0.214,1.181-0.214c0.284,0,0.533,0.032,0.747,0.096c0.071,0.015,0.145,0.038,0.219,0.069
		c0.075,0.032,0.151,0.066,0.229,0.102v-2.765l0.876-0.128v6.758l0.096,1.379h-0.769l-0.106-0.373
		c-0.214,0.143-0.441,0.26-0.684,0.352C126.339,38.413,126.015,38.463,125.666,38.463z M126.104,33.508
		c-0.563,0-0.991,0.173-1.287,0.518c-0.295,0.346-0.442,0.913-0.442,1.703c0,0.271,0.022,0.528,0.069,0.774
		c0.046,0.245,0.128,0.461,0.245,0.646c0.118,0.185,0.276,0.332,0.476,0.442s0.452,0.166,0.758,0.166
		c0.307,0,0.588-0.061,0.844-0.182c0.078-0.05,0.155-0.1,0.229-0.149c0.075-0.05,0.151-0.104,0.229-0.16V33.85
		C126.891,33.622,126.517,33.508,126.104,33.508z"/>
	<path fill="#FFFFFF" d="M129.596,30.732h0.907v0.939h-0.907V30.732z M129.606,32.953h0.896v5.382h-0.896V32.953z"/>
	<path fill="#FFFFFF" d="M133.193,33.658v2.659c0,0.228,0.009,0.431,0.027,0.608c0.018,0.178,0.06,0.327,0.128,0.448
		c0.067,0.121,0.171,0.212,0.31,0.272s0.325,0.091,0.561,0.091c0.335,0,0.662-0.061,0.982-0.182l0.16,0.63
		c-0.221,0.093-0.452,0.162-0.694,0.208c-0.242,0.047-0.48,0.07-0.715,0.07c-0.35,0-0.631-0.047-0.844-0.14
		c-0.214-0.092-0.379-0.222-0.497-0.39c-0.117-0.167-0.197-0.363-0.24-0.587c-0.043-0.225-0.063-0.468-0.063-0.731v-2.937h-0.919
		v-0.631l0.919-0.096v-1.121l0.886-0.16v1.281h2.029v0.705H133.193z"/>
	<path fill="#FFFFFF" d="M136.248,30.732h0.907v0.939h-0.907V30.732z M136.259,32.953h0.896v5.382h-0.896V32.953z"/>
	<path fill="#FFFFFF" d="M140.743,38.463c-0.463,0-0.846-0.064-1.148-0.192c-0.303-0.129-0.546-0.315-0.731-0.561
		c-0.185-0.246-0.314-0.543-0.39-0.892c-0.075-0.35-0.112-0.748-0.112-1.196c0-0.954,0.21-1.659,0.63-2.114
		c0.42-0.456,1.086-0.684,1.997-0.684c0.456,0,0.839,0.063,1.148,0.192c0.31,0.128,0.557,0.314,0.742,0.561
		c0.185,0.245,0.316,0.544,0.395,0.896s0.118,0.753,0.118,1.201c0,0.954-0.214,1.657-0.641,2.109
		C142.323,38.237,141.654,38.463,140.743,38.463z M140.743,37.769c0.327,0,0.604-0.047,0.827-0.139
		c0.225-0.093,0.402-0.229,0.534-0.411s0.226-0.41,0.283-0.684c0.057-0.274,0.085-0.593,0.085-0.956
		c0-0.284-0.021-0.554-0.063-0.807c-0.043-0.252-0.12-0.473-0.229-0.662c-0.111-0.188-0.262-0.338-0.454-0.448
		s-0.438-0.165-0.737-0.165c-0.327,0-0.602,0.048-0.822,0.144c-0.221,0.097-0.396,0.239-0.528,0.428s-0.227,0.42-0.283,0.694
		c-0.057,0.273-0.085,0.592-0.085,0.955c0,0.292,0.021,0.563,0.063,0.812c0.043,0.25,0.118,0.467,0.225,0.651
		c0.106,0.186,0.256,0.33,0.448,0.433C140.198,37.717,140.444,37.769,140.743,37.769z"/>
	<path fill="#FFFFFF" d="M145.335,32.953l0.032,0.48c0.234-0.163,0.477-0.292,0.726-0.385c0.406-0.149,0.798-0.224,1.175-0.224
		c0.363,0,0.658,0.044,0.887,0.134c0.228,0.089,0.407,0.219,0.539,0.39s0.223,0.384,0.272,0.641c0.05,0.256,0.074,0.552,0.074,0.886
		v3.46h-0.886v-3.268c0-0.228-0.013-0.434-0.037-0.619c-0.025-0.186-0.077-0.346-0.155-0.48c-0.078-0.136-0.19-0.238-0.336-0.31
		c-0.146-0.071-0.341-0.107-0.582-0.107c-0.2,0-0.396,0.029-0.588,0.086s-0.381,0.132-0.565,0.225
		c-0.079,0.035-0.151,0.072-0.22,0.111c-0.067,0.039-0.13,0.084-0.187,0.134v4.229h-0.896v-3.951l-0.086-1.431H145.335z"/>
</g>
</svg>
