<?xml version="1.0" encoding="utf-8"?>
<!-- Generator: Adobe Illustrator 16.0.3, SVG Export Plug-In . SVG Version: 6.00 Build 0)  -->
<!DOCTYPE svg PUBLIC "-//W3C//DTD SVG 1.1//EN" "http://www.w3.org/Graphics/SVG/1.1/DTD/svg11.dtd">
<svg version="1.1" id="Layer_1" xmlns="http://www.w3.org/2000/svg" xmlns:xlink="http://www.w3.org/1999/xlink" x="0px" y="0px"
	 width="150.406px" height="41.556px" viewBox="0 0 150.406 41.556" enable-background="new 0 0 150.406 41.556"
	 xml:space="preserve">
<g>
	<path fill="#C30036" d="M76.937,15.687c0,4.792,3.295,7.188,8.09,7.188c5.393,0,8.091-2.096,8.091-5.691v-0.001
		c0-4.128-2.698-4.994-8.091-6.527c-3.723-0.98-5.875-1.952-5.875-4.304l0,0c0-2.748,2.06-4.022,5.848-4.022h-0.003
		c3.556,0,5.903,1.242,5.903,4.971h1.619c0-4.791-2.998-6.589-7.492-6.589c-4.795,0-7.491,1.798-7.491,5.391
		c0,3.498,2.696,4.853,7.489,6.219c3.978,1.099,6.475,1.589,6.475,4.862c0,2.738-2.367,4.074-6.491,4.074h-0.006
		c-3.694,0-6.448-1.658-6.448-5.57L76.937,15.687z"/>
	<path fill="#C30036" d="M64.649,0.713c-6.123,0-11.086,4.961-11.086,11.081s4.963,11.081,11.086,11.081
		c6.125,0,11.088-4.961,11.088-11.081S70.774,0.713,64.649,0.713 M64.651,21.259c-5.23,0-9.47-4.237-9.47-9.464
		c0-5.228,4.239-9.466,9.47-9.466c5.229,0,9.467,4.238,9.467,9.466C74.118,17.022,69.88,21.259,64.651,21.259"/>
	<path fill="#747A7E" d="M45.173,6.703c-2.264,0-3.921,0.858-4.975,2.434V1.012h-1.617v13.777h0.001h-0.001h1.617
		c0-4.073,1.809-6.471,4.975-6.471s4.975,2.398,4.975,6.471c0,4.074-1.809,6.471-4.975,6.471c-2.385,0-4-1.362-4.65-3.776h-1.68
		c0.727,3.437,2.941,5.391,6.33,5.391c4.195,0,6.592-2.994,6.592-8.086C51.765,9.698,49.368,6.703,45.173,6.703"/>
	<path fill="#747A7E" d="M29.592,21.243c-3.166,0-4.976-2.39-4.976-6.454h11.566c0-5.092-2.396-8.086-6.591-8.086
		C25.396,6.703,23,9.697,23,14.789c0,5.092,2.396,8.086,6.592,8.086c3.389,0,5.604-1.955,6.33-5.391H34.24
		C33.588,19.887,31.975,21.243,29.592,21.243 M29.592,8.334c2.719,0,4.436,1.765,4.865,4.837h-9.732
		C25.155,10.099,26.873,8.334,29.592,8.334"/>
	<polygon fill="#747A7E" points="7.434,22.576 11.551,9.516 15.67,22.576 17.489,22.576 22.4,7.001 20.704,7.001 16.579,20.081 
		12.455,7.001 10.646,7.001 6.523,20.081 2.398,7.001 0.703,7.001 5.613,22.576 	"/>
</g>
<g>
	<path fill="#1C1C1C" d="M54.054,34.426c0-1.346,0.276-2.34,0.827-2.984c0.553-0.645,1.408-0.967,2.568-0.967
		c0.584,0,1.075,0.091,1.475,0.272c0.398,0.182,0.721,0.447,0.966,0.796s0.422,0.772,0.528,1.271c0.107,0.498,0.16,1.061,0.16,1.688
		c0,1.353-0.275,2.351-0.827,2.995s-1.411,0.967-2.579,0.967c-0.584,0-1.075-0.093-1.474-0.278c-0.399-0.185-0.72-0.45-0.961-0.795
		c-0.242-0.346-0.417-0.768-0.523-1.266S54.054,35.06,54.054,34.426z M59.639,34.341c0-0.426-0.031-0.828-0.096-1.208
		s-0.178-0.713-0.342-1.001c-0.164-0.287-0.387-0.514-0.668-0.681S57.898,31.2,57.471,31.2c-0.47,0-0.863,0.073-1.18,0.219
		s-0.573,0.358-0.77,0.639c-0.195,0.28-0.334,0.63-0.416,1.049c-0.082,0.418-0.123,0.897-0.123,1.437
		c0,0.447,0.032,0.862,0.097,1.245c0.063,0.384,0.178,0.715,0.341,0.995c0.164,0.28,0.385,0.502,0.662,0.666
		c0.278,0.163,0.627,0.244,1.047,0.244c0.484,0,0.887-0.07,1.207-0.213c0.32-0.142,0.576-0.354,0.77-0.639
		c0.191-0.283,0.328-0.633,0.41-1.048S59.639,34.895,59.639,34.341z"/>
	<path fill="#1C1C1C" d="M62.49,32.952l0.096,0.385c0.221-0.136,0.451-0.253,0.693-0.353c0.285-0.107,0.609-0.16,0.973-0.16
		c0.769,0,1.329,0.234,1.682,0.705c0.353,0.47,0.528,1.146,0.528,2.028c0,0.428-0.048,0.819-0.144,1.175
		c-0.097,0.356-0.248,0.662-0.454,0.918c-0.206,0.257-0.472,0.456-0.796,0.599s-0.717,0.214-1.18,0.214
		c-0.299,0-0.545-0.036-0.736-0.107c-0.15-0.028-0.3-0.082-0.449-0.16v2.499l-0.896,0.139v-6.514l-0.086-1.367H62.49z
		 M63.803,37.769c0.556,0,0.982-0.169,1.281-0.508c0.3-0.338,0.449-0.905,0.449-1.703c0-0.271-0.023-0.528-0.069-0.774
		c-0.046-0.245-0.128-0.461-0.245-0.646c-0.118-0.186-0.275-0.333-0.471-0.443s-0.447-0.165-0.753-0.165
		c-0.32,0-0.602,0.067-0.843,0.202c-0.172,0.093-0.32,0.192-0.449,0.299v3.407C63.031,37.658,63.397,37.769,63.803,37.769z"/>
	<path fill="#1C1C1C" d="M69.857,38.463c-0.463,0-0.852-0.06-1.169-0.177s-0.573-0.294-0.769-0.528
		c-0.195-0.235-0.336-0.53-0.422-0.887c-0.086-0.355-0.129-0.775-0.129-1.26c0-0.954,0.201-1.657,0.604-2.109
		s1.023-0.678,1.863-0.678c0.449,0,0.814,0.065,1.096,0.197s0.502,0.313,0.662,0.545s0.268,0.507,0.325,0.827
		s0.085,0.67,0.085,1.047v0.427h-3.716c0,0.307,0.021,0.566,0.063,0.78c0.107,0.412,0.295,0.701,0.562,0.864
		c0.267,0.164,0.624,0.246,1.073,0.246c0.385,0,0.723-0.048,1.014-0.145c0.293-0.096,0.523-0.193,0.695-0.294l0.234,0.62
		c-0.093,0.057-0.213,0.115-0.363,0.176c-0.149,0.061-0.318,0.117-0.507,0.171s-0.387,0.097-0.593,0.128
		C70.26,38.446,70.057,38.463,69.857,38.463z M71.086,35.205c0-0.641-0.111-1.085-0.336-1.335c-0.225-0.249-0.529-0.373-0.914-0.373
		c-0.447,0-0.788,0.098-1.02,0.293c-0.23,0.196-0.389,0.497-0.475,0.902c-0.015,0.079-0.025,0.16-0.032,0.246
		c-0.007,0.085-0.015,0.175-0.021,0.267H71.086z"/>
	<path fill="#1C1C1C" d="M73.938,32.952l0.032,0.48c0.235-0.163,0.477-0.292,0.726-0.385c0.406-0.149,0.797-0.224,1.175-0.224
		c0.363,0,0.659,0.044,0.887,0.134c0.228,0.089,0.407,0.219,0.539,0.39s0.223,0.384,0.272,0.641c0.05,0.256,0.074,0.552,0.074,0.886
		v3.46h-0.886v-3.268c0-0.228-0.013-0.434-0.038-0.619c-0.024-0.186-0.076-0.346-0.154-0.48c-0.078-0.136-0.19-0.238-0.336-0.31
		c-0.146-0.071-0.34-0.107-0.582-0.107c-0.199,0-0.396,0.029-0.588,0.086c-0.191,0.057-0.381,0.132-0.566,0.225
		c-0.078,0.035-0.15,0.072-0.219,0.111c-0.067,0.039-0.129,0.084-0.187,0.134v4.229h-0.897v-3.951l-0.085-1.431H73.938z"/>
	<path fill="#1C1C1C" d="M85.332,35.323c-0.156-0.071-0.334-0.148-0.533-0.229c-0.2-0.082-0.406-0.166-0.62-0.251
		c-0.214-0.086-0.425-0.171-0.636-0.257c-0.209-0.085-0.4-0.171-0.57-0.256c-0.186-0.1-0.35-0.205-0.492-0.315
		s-0.262-0.236-0.357-0.379s-0.171-0.306-0.225-0.491c-0.053-0.186-0.08-0.402-0.08-0.651c0-0.349,0.071-0.649,0.214-0.902
		s0.339-0.461,0.587-0.625c0.25-0.164,0.539-0.287,0.871-0.368c0.33-0.082,0.688-0.123,1.072-0.123c0.855,0,1.605,0.157,2.254,0.47
		l-0.32,0.705c-0.221-0.1-0.495-0.197-0.822-0.294c-0.328-0.096-0.694-0.144-1.1-0.144c-0.577,0-1.027,0.106-1.352,0.32
		c-0.324,0.213-0.485,0.513-0.485,0.896c0,0.257,0.06,0.476,0.181,0.657s0.317,0.344,0.588,0.485
		c0.149,0.079,0.32,0.155,0.513,0.229c0.192,0.075,0.392,0.149,0.599,0.225c0.205,0.075,0.41,0.155,0.613,0.24
		c0.203,0.086,0.391,0.178,0.561,0.277c0.171,0.093,0.328,0.192,0.471,0.3c0.142,0.106,0.265,0.229,0.367,0.368
		c0.104,0.139,0.186,0.303,0.246,0.491s0.091,0.411,0.091,0.667c0,0.356-0.069,0.664-0.208,0.924s-0.333,0.478-0.582,0.651
		c-0.25,0.175-0.543,0.305-0.881,0.39c-0.338,0.086-0.703,0.129-1.095,0.129c-0.435,0-0.865-0.045-1.292-0.134
		c-0.428-0.089-0.813-0.219-1.153-0.39l0.341-0.737c0.35,0.164,0.686,0.287,1.01,0.368c0.324,0.082,0.678,0.123,1.063,0.123
		c0.648,0,1.127-0.111,1.437-0.335c0.31-0.223,0.464-0.525,0.464-0.908C86.068,35.954,85.823,35.578,85.332,35.323z"/>
	<path fill="#1C1C1C" d="M90.255,38.463c-0.462,0-0.845-0.064-1.147-0.192c-0.303-0.129-0.547-0.315-0.732-0.561
		c-0.185-0.246-0.314-0.543-0.389-0.892c-0.075-0.35-0.113-0.748-0.113-1.196c0-0.954,0.211-1.659,0.631-2.114
		c0.42-0.456,1.086-0.684,1.996-0.684c0.456,0,0.839,0.063,1.148,0.192c0.311,0.128,0.557,0.314,0.742,0.561
		c0.186,0.245,0.316,0.544,0.396,0.896c0.078,0.353,0.117,0.753,0.117,1.201c0,0.954-0.214,1.657-0.641,2.109
		S91.166,38.463,90.255,38.463z M90.255,37.769c0.327,0,0.604-0.047,0.827-0.139c0.225-0.093,0.402-0.229,0.535-0.411
		c0.131-0.182,0.226-0.41,0.282-0.684c0.058-0.274,0.085-0.593,0.085-0.956c0-0.284-0.021-0.554-0.063-0.807
		c-0.042-0.252-0.119-0.473-0.229-0.662c-0.11-0.188-0.262-0.338-0.453-0.448c-0.193-0.11-0.438-0.165-0.738-0.165
		c-0.326,0-0.602,0.048-0.822,0.144c-0.221,0.097-0.396,0.239-0.527,0.428c-0.133,0.188-0.227,0.42-0.283,0.694
		c-0.058,0.273-0.086,0.592-0.086,0.955c0,0.292,0.021,0.563,0.064,0.812c0.043,0.25,0.117,0.467,0.225,0.651
		c0.106,0.186,0.256,0.33,0.447,0.433C89.711,37.717,89.956,37.769,90.255,37.769z"/>
	<path fill="#1C1C1C" d="M98.479,36.903l0.085,1.431H97.73l-0.053-0.47c-0.215,0.143-0.449,0.264-0.705,0.363
		c-0.385,0.156-0.776,0.235-1.176,0.235c-0.362,0-0.658-0.045-0.886-0.134s-0.405-0.219-0.534-0.39
		c-0.128-0.171-0.215-0.385-0.262-0.641c-0.046-0.257-0.068-0.552-0.068-0.887v-3.46h0.875v3.268c0,0.229,0.012,0.437,0.037,0.625
		s0.078,0.349,0.16,0.48s0.194,0.233,0.337,0.305c0.142,0.071,0.331,0.106,0.565,0.106c0.199,0,0.396-0.026,0.588-0.08
		c0.191-0.054,0.373-0.126,0.545-0.219c0.135-0.071,0.281-0.153,0.438-0.246v-4.239h0.887V36.903z"/>
	<path fill="#1C1C1C" d="M100.656,32.952l0.096,0.737c0.215-0.257,0.456-0.452,0.727-0.588c0.355-0.185,0.716-0.277,1.078-0.277
		c0.3,0,0.541,0.046,0.727,0.137l-0.245,0.749c-0.192-0.078-0.402-0.117-0.63-0.117c-0.32,0-0.631,0.097-0.93,0.289
		c-0.1,0.071-0.201,0.153-0.305,0.246c-0.103,0.093-0.204,0.196-0.304,0.311v3.896h-0.897v-3.908l-0.128-1.474H100.656z"/>
	<path fill="#1C1C1C" d="M107.949,38.024c-0.17,0.107-0.416,0.207-0.736,0.299c-0.32,0.093-0.666,0.14-1.035,0.14
		c-0.891,0-1.531-0.237-1.923-0.711c-0.392-0.473-0.587-1.147-0.587-2.023c0-0.961,0.229-1.686,0.688-2.173s1.134-0.731,2.023-0.731
		c0.342,0,0.661,0.057,0.956,0.171c0.295,0.113,0.528,0.267,0.699,0.459l-0.533,0.534c-0.136-0.149-0.3-0.268-0.492-0.353
		c-0.191-0.086-0.405-0.128-0.641-0.128c-0.598,0-1.047,0.182-1.346,0.544c-0.299,0.363-0.448,0.933-0.448,1.709
		c0,0.299,0.03,0.571,0.091,0.817c0.061,0.245,0.158,0.457,0.294,0.635s0.31,0.315,0.522,0.411c0.215,0.097,0.475,0.145,0.78,0.145
		c0.32,0,0.599-0.032,0.833-0.097c0.234-0.063,0.455-0.146,0.662-0.245L107.949,38.024z"/>
	<path fill="#1C1C1C" d="M111.207,38.463c-0.463,0-0.854-0.06-1.17-0.177s-0.572-0.294-0.769-0.528
		c-0.196-0.235-0.337-0.53-0.422-0.887c-0.085-0.355-0.128-0.775-0.128-1.26c0-0.954,0.201-1.657,0.604-2.109
		s1.023-0.678,1.863-0.678c0.447,0,0.813,0.065,1.094,0.197s0.502,0.313,0.662,0.545s0.27,0.507,0.326,0.827s0.086,0.67,0.086,1.047
		v0.427h-3.717c0,0.307,0.021,0.566,0.064,0.78c0.106,0.412,0.293,0.701,0.561,0.864c0.267,0.164,0.625,0.246,1.072,0.246
		c0.385,0,0.723-0.048,1.016-0.145c0.291-0.096,0.523-0.193,0.693-0.294l0.234,0.62c-0.092,0.057-0.213,0.115-0.361,0.176
		c-0.15,0.061-0.32,0.117-0.508,0.171c-0.189,0.054-0.387,0.097-0.594,0.128C111.609,38.446,111.406,38.463,111.207,38.463z
		 M112.436,35.205c0-0.641-0.113-1.085-0.338-1.335c-0.223-0.249-0.527-0.373-0.912-0.373c-0.449,0-0.789,0.098-1.02,0.293
		c-0.232,0.196-0.391,0.497-0.476,0.902c-0.015,0.079-0.025,0.16-0.032,0.246c-0.008,0.085-0.014,0.175-0.021,0.267H112.436z"/>
	<path fill="#1C1C1C" d="M122.387,37.565v0.769h-4.74v-7.742h4.613v0.768h-3.717v2.606h3.578v0.769h-3.578v2.83H122.387z"/>
	<path fill="#1C1C1C" d="M125.654,38.463c-0.762,0-1.32-0.24-1.676-0.722c-0.357-0.48-0.535-1.151-0.535-2.013
		c0-0.427,0.049-0.818,0.145-1.175c0.096-0.355,0.248-0.662,0.455-0.918c0.205-0.257,0.471-0.456,0.795-0.598
		c0.324-0.143,0.717-0.214,1.18-0.214c0.285,0,0.533,0.032,0.748,0.096c0.07,0.015,0.145,0.038,0.219,0.069
		c0.074,0.032,0.15,0.066,0.229,0.102v-2.765l0.877-0.128v6.758l0.096,1.379h-0.77l-0.105-0.373
		c-0.215,0.143-0.441,0.26-0.684,0.352C126.328,38.412,126.004,38.463,125.654,38.463z M126.092,33.508
		c-0.563,0-0.99,0.173-1.287,0.518c-0.295,0.346-0.441,0.913-0.441,1.703c0,0.271,0.021,0.528,0.068,0.774
		c0.047,0.245,0.129,0.461,0.246,0.646c0.117,0.185,0.275,0.332,0.475,0.442s0.453,0.166,0.758,0.166
		c0.307,0,0.588-0.061,0.844-0.182c0.078-0.05,0.156-0.1,0.23-0.149s0.15-0.104,0.229-0.16V33.85
		C126.879,33.621,126.506,33.508,126.092,33.508z"/>
	<path fill="#1C1C1C" d="M129.584,30.731h0.908v0.939h-0.908V30.731z M129.596,32.952h0.896v5.382h-0.896V32.952z"/>
	<path fill="#1C1C1C" d="M133.182,33.657v2.659c0,0.228,0.01,0.431,0.027,0.608s0.061,0.327,0.129,0.448
		c0.066,0.121,0.17,0.212,0.309,0.272s0.326,0.091,0.561,0.091c0.336,0,0.662-0.061,0.982-0.182l0.16,0.63
		c-0.221,0.093-0.451,0.162-0.693,0.208c-0.242,0.047-0.48,0.07-0.715,0.07c-0.35,0-0.631-0.047-0.844-0.14
		c-0.215-0.092-0.379-0.222-0.498-0.39c-0.117-0.167-0.197-0.363-0.24-0.587c-0.043-0.225-0.063-0.468-0.063-0.731v-2.937h-0.92
		v-0.631l0.92-0.096v-1.121l0.885-0.16v1.281h2.029v0.705H133.182z"/>
	<path fill="#1C1C1C" d="M136.236,30.731h0.908v0.939h-0.908V30.731z M136.248,32.952h0.896v5.382h-0.896V32.952z"/>
	<path fill="#1C1C1C" d="M140.732,38.463c-0.463,0-0.846-0.064-1.148-0.192c-0.303-0.129-0.547-0.315-0.732-0.561
		c-0.184-0.246-0.314-0.543-0.389-0.892c-0.076-0.35-0.113-0.748-0.113-1.196c0-0.954,0.211-1.659,0.631-2.114
		c0.42-0.456,1.086-0.684,1.996-0.684c0.457,0,0.84,0.063,1.148,0.192c0.311,0.128,0.557,0.314,0.742,0.561
		c0.186,0.245,0.316,0.544,0.395,0.896s0.119,0.753,0.119,1.201c0,0.954-0.215,1.657-0.641,2.109
		C142.313,38.236,141.643,38.463,140.732,38.463z M140.732,37.769c0.326,0,0.604-0.047,0.826-0.139
		c0.225-0.093,0.402-0.229,0.535-0.411c0.131-0.182,0.225-0.41,0.283-0.684c0.057-0.274,0.084-0.593,0.084-0.956
		c0-0.284-0.021-0.554-0.063-0.807c-0.043-0.252-0.121-0.473-0.23-0.662c-0.111-0.188-0.262-0.338-0.453-0.448
		c-0.193-0.11-0.439-0.165-0.738-0.165c-0.326,0-0.602,0.048-0.822,0.144c-0.221,0.097-0.396,0.239-0.527,0.428
		c-0.133,0.188-0.227,0.42-0.283,0.694c-0.057,0.273-0.086,0.592-0.086,0.955c0,0.292,0.021,0.563,0.064,0.812
		c0.043,0.25,0.117,0.467,0.225,0.651c0.105,0.186,0.256,0.33,0.447,0.433C140.188,37.717,140.434,37.769,140.732,37.769z"/>
	<path fill="#1C1C1C" d="M145.324,32.952l0.031,0.48c0.234-0.163,0.477-0.292,0.727-0.385c0.406-0.149,0.797-0.224,1.174-0.224
		c0.363,0,0.658,0.044,0.887,0.134c0.229,0.089,0.408,0.219,0.539,0.39c0.133,0.171,0.223,0.384,0.273,0.641
		c0.049,0.256,0.074,0.552,0.074,0.886v3.46h-0.887v-3.268c0-0.228-0.012-0.434-0.037-0.619s-0.076-0.346-0.154-0.48
		c-0.078-0.136-0.191-0.238-0.336-0.31c-0.146-0.071-0.342-0.107-0.582-0.107c-0.201,0-0.396,0.029-0.588,0.086
		c-0.193,0.057-0.381,0.132-0.566,0.225c-0.078,0.035-0.15,0.072-0.219,0.111s-0.131,0.084-0.188,0.134v4.229h-0.896v-3.951
		l-0.086-1.431H145.324z"/>
</g>
</svg>
